<svg width="580" height="480" viewBox="0 0 580 480" fill="none" xmlns="http://www.w3.org/2000/svg"><g opacity="0.665"><g opacity="0.665"><g opacity="0.6"><path d="M137.852 155.398C131.314 156.299 131.226 156.299 131.226 157.604C131.226 158.549 131.446 158.729 132.595 158.729C134.495 158.729 135.467 159.405 136.041 161.025C136.527 162.465 136.747 175.384 136.306 175.384C136.13 175.384 135.422 175.069 134.627 174.664C131.358 172.909 125.703 173.989 122.433 177.005C115.85 183.036 117.132 194.876 124.775 198.882C125.968 199.512 127.691 199.918 129.899 200.053C132.816 200.187 133.478 200.097 135.334 199.062C137.322 197.982 137.411 197.937 137.411 198.837C137.411 199.333 137.676 199.827 138.029 199.962C138.338 200.097 141.166 199.827 144.303 199.377C149.958 198.567 150.002 198.522 150.135 197.306C150.268 196.181 150.179 196.092 148.765 196.092C146.336 196.092 145.408 194.966 144.922 191.59C144.7 189.97 144.48 181.011 144.48 171.648V154.678L143.508 154.723C142.934 154.767 140.415 155.083 137.852 155.398ZM134.583 179.166L136.085 180.696V187.089V193.48L134.539 195.056C133.214 196.406 132.772 196.631 131.534 196.361C128.796 195.821 127.249 192.445 127.249 186.953C127.249 179.256 130.871 175.384 134.583 179.166ZM12.8203 157.109C12.8203 158.009 13.0855 158.189 14.8526 158.414C19.0057 158.864 19.4033 160.62 19.4033 177.636C19.4033 191.77 19.094 194.516 17.5035 195.911C16.7082 196.677 15.7804 196.991 14.5434 196.991C12.997 196.991 12.8203 197.081 12.8203 198.117V199.287L27.9744 199.152C42.775 199.017 43.1284 198.973 45.3817 197.937C48.2093 196.677 51.4787 193.211 52.0972 190.869C52.7157 188.573 52.7157 185.603 52.053 183.397C51.3903 181.056 48.6069 177.95 46.2211 176.735L44.233 175.79L45.956 174.214C48.2534 172.099 49.2254 169.443 48.9604 165.931C48.6511 161.475 45.7793 158.144 40.9636 156.703C39.1963 156.164 35.9711 156.028 25.7653 156.028H12.8203V157.109ZM36.1479 160.845C38.4453 162.6 39.108 163.995 39.108 167.057C39.108 169.262 38.8871 170.208 38.1802 171.154C36.4571 173.539 35.1759 174.169 31.6414 174.395L28.2836 174.62V167.057V159.494L31.6414 159.719C33.983 159.9 35.3084 160.215 36.1479 160.845ZM37.8709 179.031C42.0239 180.606 44.0562 186.458 42.0239 190.915C41.5821 191.905 40.8311 193.075 40.3893 193.48C37.3407 196.226 30.4927 196.361 29.0789 193.661C28.7696 193.12 28.4604 189.834 28.3721 185.603L28.1953 178.535H32.3925C34.7341 178.535 37.164 178.76 37.8709 179.031ZM183.757 158.685C181.238 161.25 182.387 165.796 185.789 166.651C187.423 167.057 189.766 165.841 190.649 164.086C192.946 159.63 187.247 155.128 183.757 158.685ZM64.6888 174.755C61.7286 175.7 58.4592 178.265 56.7804 180.967C55.5874 182.992 55.4549 183.532 55.4549 187.043C55.4549 191.545 56.1619 193.436 58.901 196.226C61.6844 199.062 64.9097 200.368 69.3719 200.368C72.5972 200.368 73.4808 200.187 75.6456 199.107C85.9398 193.931 85.9398 180.291 75.6014 175.475C72.553 174.035 67.9581 173.719 64.6888 174.755ZM72.1995 179.256C72.8181 179.93 73.525 181.191 73.7901 182.091C74.3644 184.297 74.3644 190.644 73.7458 192.535C72.9506 194.92 71.2275 196.542 69.4604 196.542C67.2955 196.542 66.3235 195.821 65.3073 193.571C63.4075 189.114 63.9819 181.731 66.5002 179.166C68.0023 177.636 70.609 177.68 72.1995 179.256ZM184.906 174.755C176.555 175.969 177.173 175.79 177.173 177.005C177.173 177.815 177.395 178.086 178.189 178.086C181.901 178.13 182.475 179.345 182.475 187.538C182.475 195.686 181.901 196.991 178.455 196.991C177.395 196.991 177.173 197.172 177.173 198.117V199.242H195.509H213.844V198.117C213.844 197.127 213.667 196.991 212.341 196.991C210.044 196.991 209.028 195.821 208.542 192.715C207.57 186.548 208.189 182.407 210.486 180.066C213.093 177.41 216.76 177.545 218.615 180.336C219.498 181.687 219.587 182.316 219.587 188.034C219.587 194.651 219.234 196.496 217.82 196.856C217.246 196.991 216.937 197.487 216.937 198.161V199.242H225.11H233.283V198.117C233.283 197.172 233.063 196.991 232.002 196.991C228.689 196.991 227.982 195.596 227.673 188.078C227.407 181.462 227.054 179.93 225.199 177.815C221.575 173.584 215.037 172.819 210.309 176.06L208.1 177.545L207.659 175.79C207.393 174.845 207.084 174.035 206.996 174.035C206.687 174.035 197.983 175.34 196.304 175.609C195.112 175.835 194.846 176.104 194.846 176.96C194.846 177.905 195.067 178.086 196.127 178.086C196.878 178.086 197.983 178.535 198.689 179.166C199.927 180.246 199.927 180.291 200.059 186.504C200.236 193.571 199.839 195.686 198.159 196.452C196.79 197.081 194.404 197.127 192.946 196.586C191.179 195.866 190.869 194.021 190.869 183.667V174.035L189.897 174.079C189.323 174.124 187.114 174.395 184.906 174.755Z" fill="#3C5D87"/><path d="M157.73 175.474C154.549 176.733 151.059 180.245 150.087 183.216C147.921 189.652 150.794 196.315 157.068 199.286C159.32 200.412 160.248 200.591 163.474 200.591C166.699 200.591 167.627 200.412 169.879 199.286C178.23 195.279 180.174 185.151 173.856 178.715C169.835 174.573 163.341 173.267 157.73 175.474ZM165.991 179.075C167.671 180.47 168.51 183.216 168.51 187.312C168.554 192.038 167.891 194.29 166.08 195.864C162.148 199.196 158.526 195.235 158.481 187.492C158.481 184.251 158.657 183.216 159.542 181.415C160.115 180.199 161.087 178.94 161.706 178.624C162.899 177.994 165.019 178.219 165.991 179.075ZM81.2969 176.463C81.2969 177.318 81.6062 177.634 82.6223 177.859C83.3293 178.039 84.3013 178.624 84.743 179.209C85.1848 179.795 87.438 184.836 89.6913 190.464C93.2257 199.196 93.9327 200.637 94.6837 200.501C95.3907 200.412 96.0975 198.926 98.0415 193.703L100.516 187.042L101.267 188.753C101.664 189.698 102.901 192.758 104.05 195.549C105.817 199.781 106.303 200.637 107.01 200.501C107.673 200.412 108.689 198.251 111.738 190.103C113.902 184.475 115.979 179.479 116.421 178.984C116.862 178.489 117.879 177.994 118.675 177.814C119.867 177.589 120.176 177.318 120.176 176.463C120.176 175.383 120.176 175.383 114.874 175.383H109.573V176.509C109.573 177.139 109.838 177.634 110.147 177.634C110.456 177.634 111.119 177.904 111.561 178.264C112.356 178.849 112.312 179.029 110.677 183.665L108.954 188.437L106.436 182C104.094 175.968 103.873 175.608 102.68 175.474C101.443 175.338 101.355 175.474 99.2786 181.1C98.1298 184.251 97.0253 187.132 96.8045 187.447C96.3626 188.168 93.0049 179.75 93.3582 178.759C93.535 178.399 94.2419 177.949 94.993 177.814C96.0092 177.589 96.3185 177.274 96.3185 176.463V175.383H88.8077H81.2969V176.463Z" fill="#3C5D87"/><path d="M120.923 364.032C120.822 364.135 120.747 364.671 120.747 365.207V366.178H119.612H118.476V367.327C118.476 368.553 118.527 368.579 120.065 368.476C120.721 368.452 120.747 368.476 120.747 369.626C120.747 370.596 120.62 370.928 120.116 371.337C118.578 372.538 118.249 374.735 119.334 376.394L119.965 377.365L119.434 377.927C118.779 378.642 118.249 378.565 113.508 377.058C111.541 376.42 109.17 375.781 108.237 375.603C102.689 374.632 99.1834 377.058 99.259 381.834C99.2843 384.286 99.8391 385.947 101.958 390.059C103.698 393.431 104.354 395.141 104.732 397.39L104.883 398.36H121.73H138.577L138.98 396.316C139.233 394.963 139.762 393.507 140.569 391.924C143.898 385.436 144.201 384.593 144.201 381.886C144.201 377.85 141.755 375.399 137.769 375.399C135.828 375.373 133.86 375.807 129.245 377.262C125.084 378.591 124.554 378.642 123.924 377.952C123.495 377.468 123.495 377.416 124.125 376.471C125.236 374.836 124.907 372.538 123.419 371.363C122.84 370.903 122.663 370.315 122.738 369.065C122.764 368.604 122.94 368.502 123.848 368.426C124.907 368.349 124.907 368.349 124.907 367.327C124.907 366.306 124.907 366.306 123.848 366.229C122.789 366.152 122.789 366.152 122.714 365.08C122.638 364.084 122.587 364.007 121.881 363.93C121.453 363.88 121.024 363.93 120.923 364.032ZM111.415 378.617C114.668 379.587 117.417 380.788 117.569 381.298C117.619 381.477 117.77 382.09 117.922 382.653C118.048 383.214 118.476 384.542 118.855 385.589C119.662 387.965 119.939 390.978 119.486 392.639C119.031 394.248 117.569 395.806 116.509 395.806C115.627 395.806 114.366 394.835 113.811 393.737C113.231 392.639 113.332 392.485 114.694 392.485C116.055 392.485 116.182 392.333 115.702 391.107C115.501 390.569 115.299 390.468 114.265 390.391C113.08 390.314 113.08 390.314 112.726 389.088C112.399 387.913 112.373 387.888 111.365 387.888C110.381 387.888 110.356 387.913 110.482 388.578C110.557 388.987 110.709 389.497 110.785 389.727C110.936 390.136 110.785 390.187 109.549 390.187C108.187 390.187 108.136 390.213 108.136 390.876C108.136 391.975 108.439 392.23 109.927 392.408C110.684 392.485 111.365 392.689 111.465 392.843C111.566 392.996 111.667 393.609 111.667 394.222C111.667 395.116 111.566 395.347 111.062 395.576C110.709 395.754 110.154 395.806 109.776 395.703C108.086 395.27 105.312 391.643 103.042 386.918C101.932 384.644 101.731 384.006 101.655 382.447C101.504 379.613 102.462 378.182 104.858 377.697C106.447 377.391 108.086 377.595 111.415 378.617ZM140.014 378.259C142.813 379.843 142.561 383.393 139.182 389.369C137.467 392.383 135.55 394.809 134.339 395.422C133.483 395.883 132.549 395.908 132.146 395.499C131.817 395.167 131.743 393.302 132.044 392.843C132.146 392.689 132.852 392.485 133.609 392.383C135.097 392.179 135.374 391.949 135.374 390.876C135.374 390.213 135.323 390.187 133.962 390.187C132.726 390.187 132.575 390.136 132.726 389.727C132.801 389.497 132.952 388.961 133.028 388.578C133.18 387.862 133.154 387.862 132.07 387.939C131.011 388.016 130.985 388.042 130.708 389.165C130.43 390.289 130.406 390.314 129.321 390.391C128.085 390.468 127.555 390.927 127.555 391.898C127.555 392.408 127.682 392.485 128.64 392.485C129.245 392.485 129.8 392.562 129.901 392.639C130.179 392.946 129.498 394.273 128.666 395.04C127.531 396.035 126.572 396.035 125.438 395.04C123.344 393.175 123.217 388.706 125.16 384.057C125.513 383.214 125.791 382.192 125.791 381.783C125.791 381.146 125.967 380.966 127.127 380.404C128.816 379.587 133.734 377.978 135.45 377.697C137.19 377.391 138.804 377.595 140.014 378.259ZM168.412 377.058C163.468 378.132 159.685 381.707 158.298 386.612C157.845 388.297 157.895 392.307 158.424 394.146C159.761 398.794 163.342 402.217 168.285 403.621C170.328 404.183 176.104 404.388 178.5 403.979C180.895 403.57 181.374 403.111 181.753 400.761C182.156 398.155 182.182 397.517 181.904 397.441C181.753 397.39 181.45 397.9 181.198 398.59C180.618 400.25 179.131 401.553 177.365 401.962C176.633 402.114 174.994 402.217 173.658 402.14C171.565 402.063 171.034 401.936 169.522 401.169C166.293 399.586 163.897 396.444 163.141 392.792C162.738 390.876 162.788 387.223 163.242 385.461C163.999 382.55 165.587 380.404 167.882 379.23C171.211 377.493 177.491 378.233 179.836 380.608C180.466 381.273 180.769 381.988 181.148 383.903C181.45 385.41 181.753 384.108 181.829 380.865L181.904 377.543L179.256 377.11C176.028 376.574 170.707 376.548 168.412 377.058ZM360.46 377.416C360.536 377.543 361.065 377.671 361.62 377.671C362.352 377.671 362.805 377.85 363.234 378.31L363.865 378.923V386.406C363.865 395.218 364.042 396.802 365.277 399.33C366.261 401.374 367.849 402.83 369.944 403.621C371.632 404.26 376.273 404.414 378.089 403.876C381.291 402.932 383.587 400.736 384.571 397.645C385.074 396.061 385.15 395.244 385.276 387.3L385.428 378.642L386.034 378.156C386.361 377.901 386.992 377.671 387.471 377.671C387.95 377.671 388.328 377.543 388.328 377.416C388.328 377.262 386.613 377.161 383.663 377.161C380.712 377.161 378.997 377.262 378.997 377.416C378.997 377.543 379.451 377.671 380.006 377.671C380.762 377.671 381.191 377.85 381.67 378.31L382.301 378.949L382.225 388.093C382.149 396.981 382.125 397.236 381.569 398.487C380.409 401.042 378.695 402.191 375.82 402.395C374.281 402.498 373.801 402.421 372.642 401.885C370.926 401.068 369.817 399.893 369.11 398.105C368.581 396.777 368.531 396.266 368.455 388.169C368.405 383.47 368.43 379.382 368.505 379.051C368.733 378.156 369.363 377.671 370.321 377.671C370.8 377.671 371.179 377.543 371.179 377.416C371.179 377.262 369.186 377.161 365.732 377.161C362.176 377.161 360.359 377.238 360.46 377.416ZM263.364 380.992C263.264 381.146 262.482 385.947 261.624 391.668C260.766 397.39 259.91 402.319 259.732 402.626C259.531 403.034 259.203 403.213 258.699 403.213C258.296 403.213 257.891 403.315 257.815 403.469C257.715 403.621 258.9 403.724 261.221 403.724C263.541 403.724 264.726 403.621 264.625 403.469C264.549 403.315 264.146 403.213 263.743 403.213C262.633 403.213 262.153 402.549 262.305 401.323C262.406 400.736 262.784 397.773 263.162 394.708C263.541 391.668 263.919 389.165 264.02 389.165C264.096 389.165 264.651 390.238 265.256 391.515C267.349 396.061 270.854 403.085 271.207 403.469C271.435 403.698 271.636 403.749 271.788 403.596C271.914 403.443 273.175 400.863 274.587 397.849C278.648 389.242 278.925 388.629 279.025 388.706C279.051 388.756 279.53 391.872 280.034 395.653C280.741 400.863 280.917 402.626 280.691 402.957C280.463 403.34 280.513 403.443 280.968 403.57C281.952 403.826 288.004 403.749 287.828 403.469C287.752 403.315 287.349 403.213 286.944 403.213C285.785 403.213 284.927 402.779 284.65 402.013C284.498 401.604 283.716 396.777 282.91 391.234C282.102 385.692 281.321 381.069 281.194 380.941C280.816 380.558 280.539 381.069 276.353 390.059C274.234 394.554 272.468 398.283 272.418 398.335C272.368 398.386 271.939 397.594 271.459 396.547C269.366 391.924 264.045 381.043 263.793 380.889C263.641 380.814 263.44 380.839 263.364 380.992ZM336.048 381.427C335.846 381.834 333.955 386.56 331.836 391.975C327.725 402.421 327.297 403.213 325.808 403.213C325.405 403.213 324.976 403.315 324.9 403.469C324.799 403.621 326.036 403.724 328.406 403.724C330.525 403.724 332.088 403.621 332.088 403.494C332.088 403.34 331.71 403.213 331.281 403.162C330.525 403.085 330.449 403.008 330.398 402.191C330.348 401.655 330.701 400.301 331.281 398.743L332.265 396.189L335.77 396.112L339.276 396.035L340.486 399.306C341.722 402.702 341.848 403.213 341.419 403.213C341.294 403.213 341.168 403.315 341.168 403.469C341.168 403.621 342.605 403.724 344.975 403.724C347.421 403.724 348.708 403.621 348.607 403.469C348.531 403.315 348.078 403.213 347.599 403.213C346.917 403.213 346.589 403.008 345.883 402.191C345.404 401.604 344.773 400.556 344.496 399.816C343.235 396.598 337.409 382.065 337.132 381.427C336.956 381.043 336.703 380.737 336.603 380.737C336.477 380.737 336.224 381.043 336.048 381.427ZM337.258 390.468C337.964 392.46 338.57 394.172 338.594 394.299C338.646 394.427 337.435 394.528 335.896 394.528C334.232 394.528 333.097 394.427 333.097 394.273C333.097 393.84 335.669 386.867 335.846 386.867C335.922 386.867 336.577 388.501 337.258 390.468ZM195.347 381.401C189.521 382.805 185.839 388.425 186.797 394.376C187.529 398.896 190.227 402.191 194.389 403.621C196.355 404.311 200.768 404.26 202.735 403.545C207.326 401.833 210.05 398.13 210.453 392.996C210.806 388.322 208.739 384.338 204.98 382.396C202.382 381.069 198.348 380.66 195.347 381.401ZM200.441 382.805C202.711 383.495 205.006 386.126 205.888 389.037C206.594 391.285 206.518 395.908 205.788 397.951C204.653 401.093 202.913 402.472 199.936 402.65C197.44 402.779 195.624 402.114 193.908 400.429C191.639 398.181 190.706 395.55 190.756 391.336C190.782 387.761 191.386 386.023 193.102 384.287C194.993 382.422 197.49 381.937 200.441 382.805ZM393.524 381.298C393.448 381.477 393.347 386.228 393.271 391.821C393.095 403.239 393.095 403.213 391.481 403.213C391.002 403.213 390.597 403.315 390.597 403.469C390.597 403.621 392.086 403.724 394.532 403.724C397.08 403.724 398.391 403.647 398.291 403.469C398.215 403.315 397.76 403.213 397.307 403.213C396.827 403.213 396.323 403.059 396.172 402.855C395.667 402.242 395.415 399.561 395.288 393.328L395.188 387.403L403.435 395.857C408 400.53 411.807 404.234 411.959 404.158C412.136 404.056 412.287 400.455 412.413 393.66C412.539 386.739 412.691 383.137 412.892 382.728C413.068 382.346 413.447 382.115 413.926 382.065C414.355 382.014 414.784 381.86 414.935 381.733C415.061 381.605 413.624 381.502 411.177 381.502C409.008 381.502 407.268 381.605 407.344 381.707C407.395 381.809 407.898 381.937 408.429 381.963C410.067 382.09 410.119 382.218 410.32 387.836C410.446 390.595 410.496 394.044 410.472 395.499L410.396 398.13L402.199 389.548C397.71 384.848 393.927 380.992 393.801 380.992C393.7 380.992 393.574 381.146 393.524 381.298ZM507.744 381.324C505.298 382.167 504.061 383.29 503.558 385.155C502.726 388.271 504.061 390.595 509.131 394.835C511.124 396.496 511.98 398.003 511.83 399.561C511.603 401.681 510.266 402.779 507.971 402.753C505.675 402.727 504.163 401.578 503.709 399.509C503.381 398.054 503.305 397.849 503.053 397.977C502.927 398.079 502.826 399.28 502.826 400.684V403.239L503.759 403.647C504.289 403.852 505.575 404.107 506.609 404.158C509.585 404.362 512.132 403.443 513.72 401.553C514.427 400.736 515.007 398.436 514.856 397.057C514.554 394.554 513.293 392.869 509.257 389.625C506.735 387.607 505.878 386.126 506.332 384.567C507.315 381.196 512.888 381.783 513.57 385.309C513.848 386.687 514.175 386.151 514.175 384.338C514.175 383.367 514.251 382.396 514.326 382.167C514.554 381.579 513.419 381.221 510.897 381.094C509.51 381.017 508.399 381.12 507.744 381.324ZM534.982 381.324C534.729 382.04 534.351 383.98 534.351 384.619C534.351 385.513 534.754 385.564 534.956 384.696C535.259 383.521 536.117 383.214 539.571 383.086L542.749 382.959L542.623 392.383C542.472 402.702 542.396 403.213 541.135 403.213C540.756 403.213 540.353 403.315 540.277 403.469C540.177 403.647 541.716 403.724 544.665 403.724C547.54 403.724 549.23 403.621 549.23 403.469C549.23 403.315 548.801 403.213 548.272 403.213C547.742 403.213 547.087 403.059 546.81 402.855C546.355 402.498 546.331 402.038 546.255 392.741L546.179 382.959L548.903 383.086C552.105 383.214 553.115 383.622 553.366 384.823C553.644 386.228 554.023 385.36 554.023 383.341V381.375H545.397C540.63 381.375 536.368 381.298 535.914 381.196C535.335 381.069 535.057 381.094 534.982 381.324ZM464.416 381.427C460.23 381.477 457.96 381.605 458.061 381.759C458.137 381.911 458.59 382.014 459.069 382.014C460.911 382.014 461.062 382.882 460.911 393.915C460.785 402.626 460.709 403.213 459.473 403.213C459.069 403.213 458.641 403.315 458.565 403.469C458.465 403.621 459.65 403.724 461.92 403.724C463.836 403.724 466.761 403.801 468.427 403.876C472.21 404.082 472.26 404.056 472.462 401.297C472.638 399.254 472.436 398.948 471.932 400.455C471.805 400.888 471.402 401.45 471.049 401.706C469.712 402.676 465.803 402.498 464.946 401.425C464.542 400.939 464.492 400.301 464.492 396.623V392.408L467.039 392.562C469.788 392.715 470.544 393.047 470.544 394.172C470.544 394.503 470.646 394.809 470.772 394.912C470.897 394.989 471.075 394.273 471.175 393.328C471.452 390.161 471.428 389.982 470.822 390.545C470.444 390.902 469.788 391.004 467.493 391.03L464.618 391.081L464.542 387.045L464.467 382.985L467.292 383.086C469.864 383.163 470.115 383.214 470.57 383.776C470.822 384.108 471.049 384.644 471.049 384.976C471.049 386.126 471.478 385.589 471.654 384.235C471.932 381.886 471.857 381.247 471.376 381.298C471.125 381.35 467.998 381.401 464.416 381.427ZM214.816 381.759C214.816 381.886 215.194 382.014 215.673 382.014C217.338 382.014 217.338 382.014 217.338 392.485C217.338 402.702 217.287 403.008 215.952 403.162C215.523 403.213 215.094 403.34 214.992 403.443C214.715 403.724 228.133 403.979 228.813 403.724C229.418 403.494 229.544 403.136 229.821 400.71C229.923 399.994 229.897 399.381 229.771 399.381C229.671 399.407 229.342 399.893 229.065 400.48C228.359 402.013 227.78 402.217 224.703 402.14C220.844 402.038 221.121 402.83 221.121 391.924C221.121 386.254 221.222 382.831 221.373 382.499C221.55 382.167 221.902 382.014 222.508 382.014C222.962 382.014 223.442 381.886 223.516 381.759C223.618 381.579 222.13 381.502 219.254 381.502C216.455 381.502 214.816 381.605 214.816 381.759ZM232.848 381.759C232.924 381.886 233.378 382.014 233.857 382.014C235.42 382.014 235.42 382.014 235.572 389.982C235.698 397.951 235.849 398.82 237.337 401.068C237.968 402.039 238.548 402.523 239.859 403.213C241.499 404.056 241.725 404.082 244.147 404.107C245.56 404.107 247.198 403.953 247.779 403.775C249.317 403.315 251.158 401.91 251.965 400.607C253.226 398.539 253.427 397.287 253.579 389.727C253.73 382.243 253.781 382.014 255.042 382.014C255.369 382.014 255.722 381.886 255.798 381.759C255.899 381.579 254.563 381.502 251.965 381.502C249.291 381.502 248.106 381.605 248.359 381.759C248.561 381.886 249.04 382.014 249.417 382.014C250.426 382.014 250.83 382.601 251.031 384.466C251.259 386.816 250.981 397.517 250.654 398.641C249.872 401.22 248.006 402.575 245.181 402.575C243.642 402.575 243.239 402.472 242.18 401.808C240.717 400.888 239.885 399.458 239.532 397.21C239.405 396.367 239.279 392.92 239.279 389.548C239.279 382.754 239.38 382.192 240.666 382.065C241.095 382.014 241.524 381.86 241.675 381.733C241.801 381.605 240.111 381.502 237.287 381.502C234.286 381.502 232.748 381.579 232.848 381.759ZM290.853 381.759C290.929 381.886 291.384 382.014 291.837 382.014C292.291 382.014 292.872 382.167 293.149 382.372C293.603 382.728 293.628 383.137 293.628 392.408C293.628 402.982 293.603 403.213 292.241 403.213C291.837 403.213 291.434 403.315 291.358 403.469C291.206 403.724 297.36 403.928 300.564 403.775C303.439 403.647 305.809 402.268 306.843 400.071C307.549 398.564 307.549 396.342 306.843 394.835C306.288 393.686 304.473 392.052 303.11 391.489C302.681 391.285 302.328 391.081 302.328 390.978C302.328 390.876 302.733 390.417 303.237 389.932C306.213 387.096 305.506 383.035 301.849 381.783C300.74 381.427 290.627 381.375 290.853 381.759ZM300.286 383.214C301.925 384.44 302.555 387.454 301.572 389.395C301.017 390.519 300.109 390.953 298.395 390.953H297.285V386.713V382.447L298.445 382.601C299.101 382.653 299.908 382.933 300.286 383.214ZM300.866 392.766C302.631 393.686 303.842 396.138 303.842 398.871C303.842 400.888 303.086 401.936 301.219 402.472C300.009 402.804 297.89 402.369 297.537 401.681C297.386 401.425 297.285 399.152 297.285 396.623V392.052L298.621 392.179C299.327 392.23 300.362 392.511 300.866 392.766ZM312.266 381.682C312.366 381.783 312.745 381.911 313.122 381.937C313.501 381.988 314.006 382.269 314.258 382.576C314.687 383.086 314.712 383.802 314.636 392.741C314.561 403.188 314.561 403.213 313.148 403.213C312.769 403.213 312.366 403.315 312.29 403.469C312.19 403.647 313.753 403.724 316.83 403.724C319.907 403.724 321.471 403.647 321.369 403.469C321.295 403.315 320.764 403.213 320.235 403.213C319.705 403.213 319.1 403.034 318.898 402.83C318.318 402.242 318.167 399.51 318.268 390.8C318.344 382.167 318.368 382.014 319.756 382.014C320.134 382.014 320.537 381.886 320.613 381.759C320.714 381.579 319.252 381.502 316.426 381.502C314.03 381.502 312.164 381.579 312.266 381.682ZM420.257 381.733C420.383 381.86 420.812 382.014 421.24 382.065C422.627 382.218 422.653 382.473 422.577 392.894C422.501 403.188 422.501 403.213 421.089 403.213C420.71 403.213 420.307 403.315 420.231 403.469C420.131 403.647 421.694 403.724 424.771 403.724C427.847 403.724 429.411 403.647 429.31 403.469C429.234 403.315 428.731 403.213 428.2 403.213C427.696 403.213 427.041 403.059 426.763 402.855C426.309 402.498 426.284 402.063 426.209 392.946C426.157 382.422 426.157 382.295 427.621 381.988C429.386 381.63 428.605 381.502 424.393 381.502C421.694 381.502 420.105 381.605 420.257 381.733ZM432.462 381.809C434.833 382.473 434.556 382.014 438.919 392.741C440.659 397.032 442.425 401.374 442.854 402.369C443.257 403.392 443.761 404.234 443.913 404.234C444.089 404.234 444.594 403.468 445.022 402.498C446.384 399.433 451.681 387.3 452.411 385.487C453.345 383.266 454.253 382.014 454.985 382.014C455.286 382.014 455.715 381.886 455.917 381.759C456.17 381.579 455.11 381.502 452.689 381.502C450.344 381.502 449.133 381.605 449.234 381.759C449.31 381.886 449.713 382.014 450.117 382.014C451.453 382.014 451.453 381.937 448.402 389.804C444.845 398.896 444.921 398.743 444.719 398.207C442.879 393.379 439.398 384.006 439.246 383.47C438.969 382.473 439.196 382.014 440.028 382.014C440.433 382.014 440.836 381.886 440.912 381.759C441.012 381.579 439.424 381.502 436.321 381.528C432.791 381.554 431.807 381.63 432.462 381.809ZM478.236 381.759C478.312 381.886 478.767 382.014 479.246 382.014C480.935 382.014 480.885 381.783 480.885 392.358C480.885 402.779 480.834 403.213 479.599 403.213C479.22 403.213 478.817 403.315 478.741 403.469C478.641 403.647 480.128 403.724 483.029 403.724C485.929 403.724 487.416 403.647 487.316 403.469C487.24 403.315 486.786 403.213 486.333 403.213C484.668 403.213 484.541 402.932 484.466 398.513L484.365 394.528H485.979H487.618L489.914 397.823C492.285 401.169 493.999 403.034 495.16 403.469C496.016 403.801 501.136 403.801 500.934 403.469C500.859 403.315 500.455 403.213 500.077 403.213C499.27 403.213 497.48 402.089 496.345 400.888C495.89 400.403 494.352 398.539 492.915 396.725L490.317 393.456L491.603 392.128C493.999 389.701 494.731 386.764 493.546 384.389C492.285 381.911 490.898 381.502 483.609 381.502C479.977 381.502 478.136 381.579 478.236 381.759ZM488.198 383.29C489.99 384.21 490.872 386.177 490.645 388.807C490.393 392.128 488.855 393.559 485.979 393.098L484.541 392.869L484.466 388.143C484.441 385.564 484.466 383.29 484.517 383.112C484.718 382.576 487.063 382.703 488.198 383.29ZM520.859 381.759C520.933 381.886 521.338 382.014 521.741 382.014C523.254 382.014 523.279 382.218 523.204 392.665C523.128 402.932 523.078 403.213 521.741 403.213C521.338 403.213 520.933 403.315 520.859 403.469C520.757 403.647 522.321 403.724 525.398 403.724C528.475 403.724 530.038 403.647 529.938 403.469C529.862 403.315 529.357 403.213 528.828 403.213C528.323 403.213 527.667 403.059 527.39 402.855C526.937 402.498 526.911 402.063 526.835 392.946C526.785 385.666 526.861 383.266 527.088 382.805C527.29 382.422 527.819 382.065 528.424 381.86C529.307 381.605 528.928 381.554 525.069 381.528C522.22 381.502 520.757 381.579 520.859 381.759ZM558.461 382.115C559.923 382.805 560.529 383.572 563.58 388.629C566.859 394.069 566.707 393.66 566.834 397.593C566.96 401.833 566.657 403.034 565.497 403.162C565.094 403.213 564.64 403.366 564.514 403.494C564.362 403.621 566.102 403.724 569.003 403.724C572.08 403.724 573.668 403.647 573.567 403.469C573.492 403.315 572.962 403.213 572.433 403.213C571.903 403.213 571.298 403.034 571.096 402.83C570.592 402.319 570.34 399.765 570.466 396.521C570.542 393.967 570.592 393.814 571.701 391.72C573.24 388.807 575.913 384.492 576.897 383.29C577.477 382.627 578.056 382.244 578.864 382.04C579.494 381.886 579.999 381.707 579.999 381.63C579.999 381.554 578.435 381.502 576.544 381.502C573.114 381.502 573.064 381.528 573.668 381.988C574.147 382.372 574.249 382.601 574.123 383.214C573.971 384.006 569.658 392.205 569.381 392.23C569.103 392.23 564.111 383.086 564.111 382.55C564.111 382.243 564.261 382.014 564.464 382.014C564.665 382.014 564.917 381.886 564.993 381.759C565.094 381.579 563.757 381.502 561.16 381.528H557.175L558.461 382.115ZM104.354 402.319V403.724H121.755H139.157V402.319V400.914H121.755H104.354V402.319ZM171.363 420.99C171.262 421.092 171.16 423.493 171.16 426.302C171.136 429.137 171.06 432.304 170.959 433.352C170.833 434.987 170.732 435.268 170.304 435.343C170.026 435.395 169.698 435.548 169.546 435.675C169.42 435.804 170.379 435.906 171.942 435.881C174.388 435.881 174.514 435.855 173.708 435.548C172.573 435.139 172.523 434.833 172.472 429.444L172.447 425.178L177.642 430.542C180.517 433.48 182.988 435.906 183.165 435.906C183.393 435.906 183.518 434.194 183.644 429.112C183.746 425.357 183.896 422.139 183.972 421.961C184.048 421.755 184.301 421.603 184.552 421.603C184.83 421.603 185.083 421.5 185.183 421.348C185.259 421.219 184.376 421.117 182.862 421.142C180.517 421.142 180.442 421.168 181.198 421.5C181.703 421.704 182.056 422.088 182.132 422.42C182.257 423.11 182.561 432.074 182.459 432.074C182.358 432.074 175.549 425.076 173.179 422.548C172.295 421.577 171.463 420.887 171.363 420.99ZM195.044 421.067C194.993 421.142 194.868 421.781 194.742 422.497L194.565 423.774L195.169 423.084C195.7 422.497 196.027 422.394 197.869 422.241L199.936 422.088V428.422C199.936 431.896 199.836 434.884 199.734 435.062C199.634 435.242 199.255 435.472 198.928 435.624C198.473 435.804 199.13 435.881 201.45 435.855C204.098 435.855 204.451 435.804 203.719 435.574C203.24 435.42 202.761 435.165 202.66 435.037C202.559 434.884 202.458 431.896 202.458 428.396V422.062L204.174 422.216C206.443 422.471 206.696 422.548 207.124 423.339C207.478 424.004 207.478 424.004 207.502 422.599V421.168L202.913 421.271C200.365 421.322 197.591 421.271 196.708 421.142C195.851 421.015 195.094 420.99 195.044 421.067ZM255.496 421.092C252.166 421.781 249.922 424.336 249.67 427.757C249.367 432.126 251.889 435.165 256.454 435.931C258.118 436.213 261.245 436.033 262.003 435.624C262.255 435.497 262.506 434.935 262.608 434.322C262.683 433.709 262.835 433.019 262.885 432.764C262.961 432.535 262.911 432.329 262.759 432.329C262.608 432.329 262.482 432.509 262.482 432.713C262.482 433.555 261.119 434.629 259.758 434.884C255.219 435.727 251.51 431.615 252.368 426.66C252.948 423.339 254.613 421.858 257.715 421.858C260.187 421.884 262.229 423.033 262.229 424.463C262.229 424.694 262.356 424.974 262.482 425.05C262.633 425.153 262.733 424.514 262.733 423.314V421.399L260.842 421.117C258.699 420.81 257.059 420.786 255.496 421.092ZM275.242 421.322C275.168 421.551 275.041 422.19 274.94 422.752L274.763 423.774L275.394 423.11C275.898 422.548 276.302 422.42 277.967 422.293C279.051 422.19 280.034 422.19 280.16 422.267C280.413 422.42 280.463 430.286 280.21 433.199C280.06 435.088 280.034 435.191 279.278 435.497C278.572 435.804 278.799 435.855 281.623 435.855C284.448 435.881 285.457 435.675 283.716 435.446C283.338 435.395 282.96 435.216 282.859 435.062C282.758 434.884 282.658 431.896 282.658 428.396V422.062L284.372 422.216C286.643 422.471 286.894 422.548 287.323 423.339C287.676 424.004 287.676 424.004 287.701 422.599V421.168L283.111 421.271C280.564 421.322 277.79 421.271 276.932 421.142C275.571 420.964 275.344 420.99 275.242 421.322ZM317.334 421.015C315.443 421.449 314.812 421.73 313.677 422.649C311.861 424.106 311.055 425.894 311.055 428.499C311.055 431.716 312.568 434.22 315.291 435.42C317.234 436.314 320.335 436.237 322.303 435.293C323.841 434.552 324.951 433.454 325.834 431.742C326.313 430.848 326.413 430.261 326.413 428.243C326.413 426.047 326.337 425.689 325.682 424.488C325.279 423.748 324.497 422.829 323.891 422.394C322.227 421.194 319.252 420.555 317.334 421.015ZM321.295 422.778C322 423.288 322.63 424.055 323.135 425.026C323.791 426.353 323.867 426.762 323.891 428.856C323.891 430.848 323.791 431.384 323.236 432.61C322.681 433.811 322.378 434.143 321.369 434.629C318.873 435.855 316.099 434.807 314.585 432.074C313.93 430.874 313.804 430.389 313.729 428.346C313.601 425.714 313.879 424.565 314.888 423.339C315.822 422.216 316.83 421.832 318.645 421.935C319.906 421.986 320.437 422.164 321.295 422.778ZM351.18 420.99C351.079 421.092 351.003 423.723 351.003 426.813C351.003 429.929 350.927 433.071 350.827 433.836C350.7 435.037 350.6 435.242 349.893 435.548C349.187 435.855 349.339 435.881 351.759 435.881C353.928 435.855 354.257 435.804 353.601 435.6C353.172 435.446 352.718 435.139 352.617 434.91C352.517 434.68 352.39 432.381 352.314 429.776L352.214 425.05L357.434 430.49C360.309 433.454 362.805 435.906 362.957 435.906C363.285 435.906 363.613 429.954 363.613 424.387C363.613 422.701 363.714 422.062 364.016 421.755C364.218 421.526 364.495 421.399 364.622 421.475C364.748 421.551 364.9 421.5 365 421.348C365.101 421.194 364.293 421.092 362.679 421.092C360.334 421.117 360.259 421.142 361.015 421.475C361.52 421.68 361.873 422.062 361.949 422.42C362.024 422.752 362.125 425.076 362.2 427.605L362.352 432.202L356.854 426.507C353.828 423.391 351.28 420.913 351.18 420.99ZM429.461 421.092C426.032 421.832 423.787 424.744 423.787 428.499C423.787 431.768 425.275 434.169 428.15 435.471C429.94 436.314 433.119 436.237 435.036 435.293C439.978 432.917 440.836 425.408 436.523 422.317C436.019 421.961 435.237 421.551 434.758 421.373C433.547 420.964 430.774 420.81 429.461 421.092ZM433.472 422.445C436.372 424.004 437.582 428.831 435.968 432.586C435.237 434.297 434.077 435.012 431.933 435.012C429.639 435.012 428.402 434.169 427.217 431.793C426.435 430.261 426.36 429.903 426.36 427.963C426.36 424.949 427.015 423.442 428.806 422.343C429.916 421.654 432.085 421.705 433.472 422.445ZM160.846 421.423C161.199 421.577 161.552 421.832 161.653 421.986C161.88 422.293 161.905 433.99 161.704 434.782C161.628 435.062 161.249 435.42 160.896 435.574C160.341 435.804 160.846 435.855 163.242 435.881C165.284 435.881 166.142 435.829 165.89 435.65C165.688 435.523 165.31 435.395 165.058 435.395C164.276 435.395 164.124 434.22 164.124 428.346C164.124 422.624 164.25 421.603 165.007 421.603C165.184 421.603 165.436 421.475 165.511 421.348C165.613 421.194 164.705 421.092 162.939 421.117C160.669 421.117 160.316 421.168 160.846 421.423ZM210.377 421.271C210.479 421.373 210.73 421.475 210.932 421.5C212.067 421.68 212.042 421.5 212.042 428.295C212.042 431.845 211.941 434.884 211.84 435.012C211.74 435.165 211.387 435.42 211.033 435.574C210.503 435.829 210.932 435.881 213.43 435.881C215.471 435.906 216.329 435.829 216.077 435.65C215.876 435.523 215.523 435.395 215.295 435.395C214.665 435.395 214.563 434.858 214.563 431.41V428.218L218.296 428.295L222.004 428.37V431.641C222.004 434.578 221.954 434.961 221.525 435.268C221.273 435.472 220.944 435.574 220.844 435.497C220.717 435.42 220.617 435.497 220.617 435.624C220.617 435.804 221.651 435.906 223.542 435.906C225.408 435.906 226.392 435.804 226.291 435.65C226.216 435.497 225.862 435.395 225.509 435.395C225.08 435.395 224.829 435.191 224.652 434.73C224.374 434.042 224.298 423.135 224.551 422.164C224.652 421.858 224.904 421.603 225.182 421.603C225.434 421.603 225.711 421.475 225.787 421.348C225.888 421.194 224.929 421.092 223.089 421.117C220.415 421.142 220.289 421.142 221.046 421.5C222.054 421.935 222.181 422.394 222.079 425.178L222.004 427.35L218.271 427.426L214.539 427.502L214.615 424.617C214.691 421.832 214.715 421.73 215.27 421.654C215.573 421.603 215.825 421.475 215.825 421.348C215.825 421.219 214.564 421.117 213.025 421.117C211.462 421.117 210.277 421.194 210.377 421.271ZM230.326 421.373C230.603 421.475 231.032 421.628 231.284 421.704C231.688 421.832 231.713 422.368 231.713 428.218C231.713 431.716 231.637 434.756 231.563 434.987C231.487 435.216 231.21 435.395 230.957 435.395C230.679 435.395 230.402 435.523 230.326 435.65C230.226 435.829 231.637 435.906 234.639 435.855L239.128 435.778L239.33 434.756C239.608 433.428 239.456 432.739 239.077 433.658C238.7 434.578 238.044 434.884 236.505 434.884C234.286 434.884 234.235 434.807 234.235 431.436V428.499H235.825C237.589 428.499 237.866 428.627 238.17 429.521C238.347 430.057 238.397 429.903 238.548 428.627C238.724 427.196 238.598 426.43 238.347 427.146C238.271 427.375 237.589 427.477 236.228 427.477H234.235V424.795V422.113H235.572C237.463 422.113 238.018 422.343 238.421 423.237C238.75 424.029 238.75 424.029 238.774 423.365C238.774 422.981 238.85 422.368 238.926 421.961L239.052 421.219L234.437 421.194C231.89 421.168 230.049 421.245 230.326 421.373ZM267.223 421.603L268.03 422.113V428.166C268.03 431.512 267.955 434.475 267.879 434.782C267.803 435.062 267.424 435.42 267.071 435.574C266.542 435.778 267.021 435.855 269.366 435.855C270.98 435.881 272.317 435.829 272.317 435.778C272.317 435.727 271.964 435.574 271.51 435.446C270.956 435.318 270.627 435.037 270.527 434.603C270.425 434.271 270.35 431.384 270.325 428.218C270.3 422.216 270.325 421.986 271.435 421.399C271.838 421.168 271.309 421.117 269.164 421.092H266.391L267.223 421.603ZM288.584 421.348C288.66 421.475 288.887 421.603 289.063 421.603C289.719 421.603 291.938 424.693 293.754 428.166C294.46 429.495 294.51 429.776 294.51 432.355C294.51 434.961 294.486 435.139 293.956 435.42C293.628 435.6 293.351 435.701 293.299 435.675C293.249 435.624 293.149 435.675 293.073 435.752C292.998 435.829 294.259 435.881 295.873 435.881C297.713 435.881 298.772 435.804 298.672 435.65C298.596 435.497 298.243 435.395 297.916 435.395C297.083 435.395 296.957 434.782 297.083 431.512L297.158 428.882L298.798 426.072C300.664 422.88 301.673 421.603 302.328 421.603C302.607 421.603 302.884 421.475 302.959 421.348C303.06 421.194 302.328 421.092 300.967 421.092C299.68 421.092 298.798 421.194 298.798 421.348C298.798 421.475 298.924 421.603 299.05 421.603C299.605 421.603 299.227 422.829 297.916 425.332C297.134 426.788 296.428 428.014 296.326 428.09C296.099 428.218 292.745 422.42 292.745 421.909C292.745 421.755 292.872 421.603 292.998 421.603C293.149 421.603 293.249 421.475 293.249 421.348C293.249 421.194 292.266 421.092 290.829 421.092C289.29 421.092 288.483 421.194 288.584 421.348ZM330.222 421.373C330.499 421.475 330.902 421.628 331.155 421.704C331.559 421.832 331.584 422.368 331.584 428.295C331.584 431.845 331.483 434.884 331.381 435.062C331.281 435.242 330.902 435.472 330.575 435.624C330.096 435.804 330.751 435.881 333.097 435.881C335.216 435.906 336.124 435.829 335.871 435.65C335.669 435.523 335.24 435.395 334.963 435.395C334.206 435.395 334.106 434.987 334.106 431.538V428.499H335.645C337.409 428.499 338.141 428.805 338.167 429.597C338.217 430.415 338.57 428.908 338.62 427.733C338.646 427.069 338.57 426.94 338.343 427.17C338.167 427.35 337.258 427.477 336.072 427.477H334.106V424.795V422.113H335.695C337.536 422.113 338.418 422.497 338.67 423.391C338.822 423.927 338.847 423.927 338.872 423.519C338.897 423.237 338.973 422.599 339.049 422.088L339.175 421.194H334.458C331.862 421.194 329.97 421.271 330.222 421.373ZM368.783 421.296C368.859 421.373 369.162 421.475 369.489 421.526C369.792 421.577 370.145 421.73 370.296 421.884C370.447 422.036 370.548 424.514 370.548 428.524C370.548 434.526 370.523 434.961 370.069 435.268C369.817 435.472 369.489 435.574 369.388 435.497C369.262 435.42 369.161 435.497 369.161 435.624C369.161 435.804 370.599 435.906 373.448 435.906H377.736L377.989 435.242C378.139 434.884 378.24 434.22 378.24 433.786V432.968L377.736 433.786C377.458 434.245 376.954 434.68 376.601 434.782C375.617 435.037 373.424 434.756 373.171 434.348C373.045 434.143 372.945 432.764 372.945 431.232V428.499H374.709C376.475 428.499 376.5 428.524 376.828 429.29L377.155 430.082L377.332 428.882C377.584 426.992 377.56 426.915 377.005 427.221C376.728 427.35 375.718 427.477 374.735 427.477H372.945V424.795V422.113H374.407C376.122 422.113 377.029 422.522 377.231 423.391L377.383 424.029L377.56 423.391C377.66 423.033 377.736 422.394 377.736 421.961V421.168H373.196C370.674 421.142 368.707 421.219 368.783 421.296ZM381.065 421.68C381.569 422.113 382.073 423.314 383.284 427.094C385.932 435.242 386.335 436.263 386.689 435.855C386.866 435.675 387.774 433.555 388.681 431.18C389.614 428.78 390.497 426.507 390.673 426.123C390.976 425.434 391.026 425.51 392.465 429.06C394.734 434.603 395.44 436.161 395.642 436.033C395.769 435.956 396.625 433.581 397.533 430.721C400.156 422.726 400.56 421.755 401.367 421.423C401.972 421.194 401.695 421.142 399.803 421.117C397.66 421.117 397.559 421.142 398.239 421.5C398.618 421.704 398.921 421.961 398.921 422.062C398.921 422.241 398.113 425.101 396.827 429.469C396.474 430.644 396.146 431.666 396.07 431.716C396.02 431.793 395.011 429.521 393.877 426.711C392.716 423.901 391.682 421.526 391.581 421.449C391.279 421.271 391.078 421.73 389.211 426.839C388.278 429.367 387.445 431.589 387.345 431.768C387.243 431.947 386.588 430.134 385.856 427.682C384.218 422.113 384.116 421.603 384.621 421.603C384.848 421.603 385.1 421.475 385.176 421.348C385.276 421.194 384.444 421.092 382.855 421.092H380.384L381.065 421.68ZM408.377 421.348C408.479 421.5 408.68 421.603 408.858 421.603C409.412 421.603 410.673 423.187 412.388 426.021C414.355 429.24 414.682 430.466 414.431 433.199C414.254 435.088 414.229 435.165 413.473 435.523C412.741 435.829 412.918 435.855 415.818 435.855C418.465 435.855 418.819 435.804 418.088 435.574C417.609 435.42 417.129 435.165 417.029 435.037C416.927 434.884 416.827 433.581 416.827 432.126C416.827 429.24 416.877 429.086 419.046 425.434C420.761 422.522 421.113 422.088 422.022 421.704C422.501 421.5 422.879 421.296 422.879 421.219C422.879 421.168 421.895 421.117 420.71 421.117C418.643 421.117 418.567 421.142 418.97 421.603C419.323 421.986 419.323 422.164 419.046 422.803C418.441 424.182 416.247 428.243 416.095 428.243C415.943 428.243 412.942 422.854 412.641 422.036C412.565 421.781 412.615 421.603 412.766 421.603C412.918 421.603 413.044 421.5 413.044 421.348C413.044 421.219 412.01 421.117 410.648 421.117C409.185 421.117 408.303 421.219 408.377 421.348ZM443.307 421.449L444.19 421.781L444.266 428.014C444.29 431.436 444.266 434.475 444.215 434.756C444.14 435.062 443.761 435.42 443.383 435.574C442.803 435.778 443.257 435.829 445.703 435.855C447.72 435.881 448.604 435.804 448.351 435.65C448.149 435.523 447.772 435.395 447.519 435.395C446.864 435.395 446.586 434.348 446.586 431.922V429.776H447.67C448.755 429.776 448.78 429.802 450.117 431.742C452.613 435.369 453.446 435.931 456.27 435.881H457.557L456.547 435.42C455.993 435.165 455.009 434.399 454.354 433.709C453.017 432.279 450.621 429.29 450.621 429.009C450.621 428.933 450.924 428.576 451.277 428.218C452.916 426.66 453.421 424.488 452.487 422.93C451.705 421.551 450.697 421.271 446.333 421.168C442.879 421.117 442.526 421.142 443.307 421.449ZM449.587 422.778C451.479 424.387 451.05 428.422 448.931 428.831C448.552 428.908 447.872 428.908 447.419 428.831L446.586 428.677V425.408V422.113H447.696C448.528 422.113 449.007 422.293 449.587 422.778ZM458.641 421.423C459.095 421.603 459.574 421.909 459.7 422.113C459.977 422.548 460.029 432.662 459.776 434.194C459.675 434.91 459.473 435.242 459.045 435.42C458.716 435.523 458.439 435.701 458.439 435.778C458.439 435.855 459.7 435.906 461.264 435.906C463.786 435.906 464.668 435.701 463.181 435.471C462.878 435.42 462.525 435.242 462.424 435.062C462.323 434.91 462.222 433.326 462.222 431.564C462.222 428.933 462.272 428.447 462.551 428.754C462.727 428.959 463.886 430.338 465.123 431.768C468.275 435.497 468.553 435.675 471.201 435.855C472.815 435.956 473.344 435.906 473.218 435.701C473.118 435.523 472.865 435.395 472.663 435.395C471.73 435.395 470.141 434.169 467.645 431.512C466.156 429.929 464.744 428.32 464.467 427.963L464.013 427.298L466.737 424.591C468.83 422.522 469.688 421.832 470.494 421.603C471.075 421.449 471.554 421.271 471.554 421.219C471.554 421.142 470.52 421.092 469.283 421.092H467.014L467.166 421.704C467.292 422.216 467.014 422.649 465.576 424.207C464.618 425.23 463.483 426.481 463.03 426.966L462.222 427.86V425.05C462.222 423.493 462.323 422.113 462.424 421.986C462.525 421.832 462.878 421.577 463.231 421.423C463.76 421.168 463.307 421.117 460.835 421.117C458.187 421.142 457.91 421.168 458.641 421.423Z" fill="#3C5D87"/><path fill-rule="evenodd" clip-rule="evenodd" d="M346.035 135.56C343.606 135.56 340.506 135.901 338.495 135.901C338.076 135.901 336.988 135.901 336.988 135.048C336.988 134.364 337.574 133.595 340.087 133.169C341.931 132.826 343.858 132.57 343.858 127.616V87.4739C343.858 85.852 340.339 86.0226 338.159 85.852C336.233 85.6798 335.646 85.6798 335.646 84.7415C335.646 83.2891 337.91 83.2891 338.914 83.2891H346.539C350.643 83.2891 354.581 82.7781 359.942 82.7781C377.537 82.7781 391.78 91.6602 391.78 112.244C391.78 125.056 380.218 135.56 365.808 135.56H346.035ZM351.063 124.884C351.063 130.862 356.34 133.51 361.787 133.51C368.322 133.51 383.904 127.96 383.904 110.62C383.904 93.1129 368.49 85.3394 358.1 85.3394C351.23 85.3394 351.063 86.876 351.063 88.0719V124.884ZM399.591 124.969C399.591 119.76 399.757 111.816 399.757 106.778C399.757 105.582 398.334 105.41 397.329 105.155C395.317 104.642 394.815 104.472 394.815 103.874C394.815 103.105 395.735 103.105 396.909 103.105C398.081 103.105 399.254 103.277 400.511 103.277C401.685 103.277 402.941 103.105 404.198 103.105C405.286 103.105 405.455 103.532 405.455 104.728C405.455 112.328 405.286 119.93 405.286 127.532C405.286 131.035 407.8 132.997 411.906 132.997C421.204 132.997 421.875 128.983 421.959 125.481C421.959 119.418 422.127 113.268 422.127 107.203C422.127 106.18 421.707 106.18 417.77 105.155C417.1 104.984 415.342 104.472 415.342 103.788C415.342 103.277 416.261 103.105 417.183 103.105C418.607 103.105 420.033 103.277 421.457 103.277C423.131 103.277 424.723 103.105 426.398 103.105C426.986 103.105 428.158 103.36 428.158 104.899C428.158 113.525 427.824 122.151 427.824 130.777C427.824 132.57 429.248 132.826 430.002 132.826C433.27 132.826 434.359 132.826 434.359 133.681C434.359 134.364 433.94 134.536 432.683 134.706C426.819 135.646 423.383 136.414 422.63 136.414C421.959 136.414 421.959 135.815 421.959 135.048V133.084C421.959 132.4 421.791 132.059 421.373 132.059C420.033 132.059 416.429 137.097 409.644 137.097C401.768 137.097 399.591 132.229 399.591 124.969ZM442.245 86.9629C442.245 82.4352 438.139 83.887 438.139 82.2646C438.139 81.6667 438.726 81.496 439.899 81.0688L445.595 78.8493C446.015 78.6777 446.517 78.6777 447.021 78.6777C447.439 78.6777 447.941 78.9333 447.941 80.2162V115.319C447.941 116.257 448.108 116.684 448.697 116.684C449.533 116.684 462.351 108.997 462.351 107.461C462.351 105.24 459.169 105.24 459.169 103.96C459.169 103.532 459.838 103.105 460.342 103.105C462.101 103.105 464.614 103.277 466.791 103.277C468.885 103.277 471.399 103.105 473.075 103.105C473.829 103.105 474.667 103.277 474.667 104.129C474.667 105.07 471.736 105.668 470.563 106.18C468.133 107.29 454.392 115.404 454.392 116.343C454.392 116.941 454.812 117.281 455.063 117.539L469.556 130.947C472.991 134.108 476.175 133.853 476.175 135.048C476.175 135.475 475.339 135.901 473.997 135.901C472.237 135.901 470.058 135.56 467.545 135.56C465.367 135.56 463.357 135.901 461.345 135.901C459.586 135.901 458.832 135.815 458.832 135.048C458.832 134.279 459.838 134.022 461.262 133.853C462.101 133.766 462.855 133.255 462.855 132.657C462.855 132.229 462.434 131.801 461.934 131.29L449.282 119.076C449.031 118.82 448.697 118.564 448.528 118.564C448.192 118.564 447.941 118.649 447.941 118.991V131.119C447.941 132.997 449.031 133.595 449.784 133.853C451.124 134.279 452.215 134.279 452.215 135.048C452.215 135.73 451.124 135.901 450.287 135.901C448.277 135.901 446.517 135.56 444.673 135.56C442.662 135.56 440.066 135.901 438.641 135.901C438.139 135.901 436.631 135.815 436.631 135.048C436.631 134.279 437.301 134.108 438.139 133.853C440.485 133.169 442.245 133.426 442.245 129.838V86.9629ZM482.352 115.745C482.185 116.257 482.185 117.369 482.185 118.734C482.185 125.91 484.112 132.997 494.332 132.997C500.784 132.997 500.95 129.582 502.292 129.582C502.71 129.582 503.046 129.838 503.046 130.265C503.046 130.862 499.526 137.097 490.813 137.097C481.598 137.097 476.32 130.435 476.32 119.76C476.32 111.73 481.179 101.738 491.567 101.738C501.203 101.738 504.47 110.108 504.47 113.782C504.47 115.319 504.219 115.744 502.793 115.744L482.352 115.745ZM498.941 108.997C498.941 106.094 496.259 103.788 492.741 103.788C486.709 103.788 483.105 109.767 483.105 112.414C483.105 113.013 483.274 113.184 490.395 113.184C497.767 113.184 498.941 112.072 498.941 108.997ZM342.657 143.322V149.511C342.722 151.247 343.697 152.295 345.244 152.295C346.789 152.295 347.766 151.247 347.831 149.511V143.322H348.677V149.525C348.65 151.578 347.52 153.089 345.244 153.089C342.968 153.089 341.838 151.578 341.813 149.525V143.322H342.657ZM360.786 143.322H361.749L366.922 151.738H366.949V143.322H367.794V152.89H366.728L361.658 144.62H361.631V152.89H360.786V143.322ZM379.98 152.891H380.826V143.284H379.98V152.891ZM395.971 152.028H395.999L398.977 143.322H399.819L396.427 152.89H395.465L392.033 143.322H392.954L395.971 152.028ZM411.019 152.89V143.322H416.597V144.118H411.865V147.55H416.415V148.344H411.865V152.094H416.793V152.89H411.019ZM429.221 152.89H428.376V143.322H431.443C432.264 143.322 432.939 143.375 433.654 143.826C434.303 144.224 434.616 144.913 434.616 145.826C434.616 146.861 433.9 147.603 432.809 147.882V147.906C434.005 148.106 434.264 148.928 434.381 150.041C434.55 151.591 434.5 152.306 434.877 152.89H433.9C433.68 152.254 433.627 151.578 433.576 150.903C433.382 148.716 433.251 148.331 431.548 148.331H429.221V152.89ZM431.028 147.537C432.224 147.537 433.705 147.456 433.705 145.826C433.705 143.984 432.016 144.118 431.119 144.118H429.221V147.537H431.028ZM448.82 153.089C447.325 153.089 446.065 151.976 446.025 150.398H446.934C446.961 151.87 448.028 152.295 449.287 152.295C450.342 152.295 451.55 151.671 451.55 150.452C451.55 149.497 450.874 149.048 450.081 148.781C448.56 148.266 446.246 147.774 446.246 145.707C446.246 144.037 447.754 143.123 449.235 143.123C450.47 143.123 452.083 143.561 452.291 145.403H451.381C451.355 144.224 450.303 143.918 449.34 143.918C448.366 143.918 447.157 144.421 447.157 145.588C447.157 148.306 452.46 147.072 452.46 150.372C452.46 152.453 450.705 153.089 448.82 153.089ZM464.213 152.891H465.059V143.284H464.213V152.891ZM479.345 144.118H476.316V143.322H483.181V144.118H480.205L480.191 152.89H479.358L479.345 144.118ZM497.274 148.756L493.817 143.322H494.896L497.769 147.948L500.641 143.322H501.552L498.119 148.728V152.89H497.274V148.756Z" fill="#3C5D87"/><path fill-rule="evenodd" clip-rule="evenodd" d="M42.6946 327.178C42.6946 326.177 42.6635 324.316 42.3909 323.833C42.2768 323.638 41.9883 323.526 41.5888 323.492L41.187 323.462C41.0909 323.345 41.1231 323.138 41.2173 323.071C41.8291 323.104 42.4223 323.119 43.0469 323.119C43.721 323.119 44.1532 323.104 44.7322 323.071C44.8603 323.153 44.8435 323.361 44.7653 323.462L44.3783 323.492C43.9773 323.526 43.6739 323.669 43.5769 323.881C43.3535 324.413 43.3535 326.272 43.3535 327.178V329.008C43.3535 330.412 43.1287 331.902 42.2285 332.869C41.5385 333.63 40.3499 334.051 39.1647 334.051C38.0588 334.051 36.9514 333.84 36.1662 333.162C35.3168 332.45 34.9139 331.271 34.9139 329.347V325.53C34.9139 323.85 34.8829 323.574 33.9516 323.492L33.553 323.462C33.4564 323.395 33.4874 323.119 33.5834 323.071C34.3848 323.104 34.9315 323.119 35.5721 323.119C36.231 323.119 36.7604 323.104 37.544 323.071C37.6418 323.119 37.6744 323.395 37.5777 323.462L37.1927 323.492C36.2623 323.574 36.231 323.85 36.231 325.53V329.023C36.231 331.626 37.0317 333.336 39.4857 333.336C41.8123 333.336 42.6946 331.496 42.6946 329.038V327.178ZM63.6558 331.044C63.6558 331.529 63.6558 333.452 63.704 333.873C63.6727 333.968 63.5751 334.052 63.3989 334.052C63.2076 333.776 62.7418 333.209 61.3469 331.612L57.6248 327.343C57.1916 326.84 56.101 325.515 55.7632 325.159H55.7321C55.6679 325.353 55.6512 325.726 55.6512 326.207V329.732C55.6512 330.493 55.6679 332.596 55.941 333.08C56.037 333.26 56.358 333.355 56.7603 333.385L57.2566 333.437C57.3516 333.565 57.3366 333.758 57.2237 333.84C56.5031 333.808 55.941 333.792 55.3468 333.792C54.6745 333.792 54.242 333.808 53.6784 333.84C53.5663 333.758 53.5494 333.536 53.6472 333.437L54.0794 333.385C54.4494 333.338 54.7067 333.242 54.7856 333.061C55.0099 332.485 54.9956 330.509 54.9956 329.732V325.061C54.9956 324.608 54.9789 324.269 54.6416 323.896C54.4166 323.67 54.0307 323.557 53.6472 323.509L53.3758 323.477C53.2781 323.379 53.2781 323.138 53.4053 323.071C54.0794 323.119 54.9315 323.119 55.2171 323.119C55.4768 323.119 55.749 323.104 55.9562 323.071C56.2773 323.896 58.1716 326.033 58.699 326.629L60.2554 328.392C61.3638 329.635 62.1493 330.543 62.9035 331.319H62.9338C62.9995 331.239 62.9995 330.979 62.9995 330.638V327.178C62.9995 326.418 62.9828 324.317 62.6785 323.833C62.5825 323.687 62.3253 323.588 61.6832 323.509L61.4111 323.477C61.2998 323.379 61.3134 323.119 61.4438 323.071C62.1796 323.104 62.7265 323.119 63.3357 323.119C64.0253 323.119 64.4422 323.104 64.9864 323.071C65.1154 323.153 65.1154 323.379 65.0194 323.477L64.7954 323.509C64.2819 323.588 63.9612 323.718 63.8977 323.85C63.6246 324.433 63.6558 326.435 63.6558 327.178V331.044ZM75.6041 325.579C75.6041 323.864 75.5719 323.588 74.6248 323.509L74.2232 323.477C74.1257 323.41 74.1604 323.119 74.2555 323.071C75.0569 323.105 75.6041 323.119 76.2771 323.119C76.9184 323.119 77.4637 323.105 78.2665 323.071C78.3609 323.119 78.3925 323.41 78.297 323.477L77.8969 323.509C76.9512 323.588 76.9184 323.864 76.9184 325.579V331.334C76.9184 333.046 76.9512 333.275 77.8969 333.385L78.297 333.437C78.3925 333.501 78.3609 333.791 78.2665 333.84C77.4637 333.808 76.9184 333.791 76.2771 333.791C75.6041 333.791 75.0569 333.808 74.2555 333.84C74.1604 333.791 74.1257 333.535 74.2232 333.437L74.6248 333.385C75.5719 333.275 75.6041 333.046 75.6041 331.334V325.579ZM88.5938 324.836C88.2258 323.93 87.985 323.588 87.2942 323.509L87.0045 323.477C86.8941 323.379 86.9084 323.153 87.0381 323.071C87.5034 323.104 88.0159 323.12 88.7055 323.12C89.4124 323.12 89.9732 323.104 90.647 323.071C90.7606 323.138 90.7915 323.379 90.6795 323.477L90.4394 323.509C89.8293 323.588 89.7012 323.685 89.6849 323.816C89.7172 323.978 89.9889 324.853 90.487 326.08C91.2238 327.956 91.9642 329.813 92.7662 331.658C93.2609 330.592 93.9361 328.926 94.3049 328.068C94.7702 326.97 95.5245 325.143 95.7965 324.448C95.9257 324.109 95.9417 323.93 95.9417 323.816C95.9417 323.703 95.7805 323.574 95.2197 323.509L94.9293 323.477C94.8172 323.379 94.8503 323.138 94.9622 323.071C95.4122 323.104 96.0218 323.12 96.6302 323.12C97.1612 323.12 97.6576 323.104 98.1856 323.071C98.2984 323.138 98.2984 323.393 98.2193 323.477L97.738 323.509C97.3538 323.54 97.1115 323.737 96.9022 324.076C96.4539 324.836 95.8296 326.147 95.1063 327.794L94.2403 329.782C93.5982 331.271 92.8452 333.144 92.5714 334.003C92.5245 334.033 92.4592 334.05 92.397 334.05C92.3161 334.05 92.2364 334.033 92.1552 334.003C91.9773 333.321 91.6903 332.532 91.4171 331.852L88.5938 324.836ZM107.904 325.548C107.904 323.864 107.872 323.621 106.926 323.511L106.669 323.477C106.573 323.41 106.605 323.12 106.701 323.071C107.391 323.104 107.935 323.12 108.593 323.12H111.609C112.636 323.12 113.584 323.12 113.776 323.071C113.871 323.347 113.968 324.511 114.032 325.223C113.968 325.322 113.712 325.352 113.632 325.255C113.392 324.497 113.248 323.93 112.411 323.718C112.075 323.638 111.562 323.621 110.855 323.621H109.701C109.222 323.621 109.222 323.654 109.222 324.269V327.501C109.222 327.956 109.27 327.956 109.749 327.956H110.682C111.352 327.956 111.85 327.923 112.042 327.858C112.238 327.794 112.349 327.696 112.429 327.291L112.559 326.628C112.636 326.531 112.908 326.531 112.974 326.643C112.974 327.034 112.908 327.665 112.908 328.28C112.908 328.861 112.974 329.477 112.974 329.829C112.908 329.944 112.636 329.944 112.559 329.846L112.411 329.219C112.349 328.926 112.238 328.685 111.917 328.602C111.692 328.536 111.304 328.522 110.682 328.522H109.749C109.27 328.522 109.222 328.536 109.222 328.96V331.239C109.222 332.094 109.27 332.645 109.523 332.918C109.718 333.11 110.054 333.289 111.466 333.289C112.702 333.289 113.166 333.225 113.52 333.046C113.809 332.887 114.242 332.321 114.657 331.479C114.77 331.4 114.997 331.446 115.058 331.594C114.946 332.161 114.546 333.403 114.335 333.84C112.893 333.808 111.466 333.791 110.039 333.791H108.593C107.904 333.791 107.359 333.808 106.412 333.84C106.314 333.791 106.285 333.535 106.38 333.437L106.908 333.385C107.823 333.309 107.904 333.061 107.904 331.368V325.548ZM126.604 327.875C126.604 328.164 126.604 328.343 126.652 328.41C126.699 328.458 126.941 328.488 127.759 328.488C128.337 328.488 128.946 328.424 129.411 328.068C129.842 327.73 130.211 327.164 130.211 326.065C130.211 324.786 129.429 323.574 127.644 323.574C126.652 323.574 126.604 323.638 126.604 324.09V327.875ZM125.287 325.563C125.287 324.026 125.239 323.751 124.582 323.67L124.068 323.606C123.956 323.526 123.956 323.265 124.086 323.202C124.981 323.12 126.092 323.071 127.661 323.071C128.658 323.071 129.601 323.153 130.34 323.557C131.109 323.962 131.671 324.689 131.671 325.823C131.671 327.357 130.468 328.198 129.668 328.522C129.587 328.619 129.668 328.782 129.747 328.911C131.029 330.995 131.881 332.29 132.973 333.211C133.246 333.452 133.646 333.63 134.079 333.662C134.16 333.695 134.174 333.825 134.094 333.889C133.951 333.936 133.693 333.968 133.389 333.968C132.025 333.968 131.207 333.565 130.07 331.934C129.651 331.334 128.994 330.218 128.496 329.493C128.255 329.136 127.998 328.975 127.357 328.975C126.634 328.975 126.604 328.992 126.604 329.333V331.368C126.604 333.061 126.634 333.261 127.568 333.385L127.902 333.437C127.998 333.517 127.968 333.791 127.871 333.84C127.15 333.808 126.604 333.791 125.962 333.791C125.287 333.791 124.709 333.808 123.956 333.84C123.861 333.791 123.828 333.549 123.924 333.437L124.324 333.385C125.255 333.275 125.287 333.061 125.287 331.368V325.563ZM144.674 334.051C143.328 334.051 142.476 333.63 142.171 333.452C141.979 333.096 141.772 331.948 141.738 331.19C141.82 331.074 142.059 331.044 142.126 331.142C142.364 331.966 143.022 333.549 144.884 333.549C146.23 333.549 146.889 332.663 146.889 331.691C146.889 330.979 146.743 330.185 145.574 329.428L144.052 328.425C143.246 327.889 142.316 326.97 142.316 325.646C142.316 324.109 143.506 322.863 145.59 322.863C146.086 322.863 146.662 322.959 147.081 323.071C147.289 323.138 147.512 323.168 147.642 323.168C147.786 323.557 147.93 324.463 147.93 325.143C147.867 325.24 147.61 325.288 147.532 325.191C147.322 324.413 146.889 323.361 145.348 323.361C143.778 323.361 143.439 324.413 143.439 325.159C143.439 326.098 144.21 326.775 144.802 327.145L146.086 327.956C147.097 328.585 148.093 329.522 148.093 331.058C148.093 332.838 146.76 334.051 144.674 334.051ZM158.995 325.579C158.995 323.864 158.966 323.588 158.017 323.509L157.616 323.477C157.519 323.41 157.553 323.119 157.649 323.071C158.452 323.105 158.995 323.119 159.667 323.119C160.313 323.119 160.855 323.105 161.661 323.071C161.757 323.119 161.787 323.41 161.692 323.477L161.288 323.509C160.344 323.588 160.313 323.864 160.313 325.579V331.334C160.313 333.046 160.344 333.275 161.288 333.385L161.692 333.437C161.787 333.501 161.757 333.791 161.661 333.84C160.855 333.808 160.313 333.791 159.667 333.791C158.995 333.791 158.452 333.808 157.649 333.84C157.553 333.791 157.519 333.535 157.616 333.437L158.017 333.385C158.966 333.275 158.995 333.046 158.995 331.334V325.579ZM176.805 331.368C176.805 333.061 176.835 333.307 177.764 333.385L178.281 333.437C178.377 333.5 178.342 333.792 178.247 333.841C177.332 333.808 176.786 333.792 176.144 333.792C175.502 333.792 174.944 333.808 173.914 333.841C173.817 333.792 173.789 333.516 173.914 333.437L174.494 333.385C175.408 333.307 175.486 333.061 175.486 331.368V324.138C175.486 323.637 175.486 323.624 175.006 323.624H174.123C173.433 323.624 172.554 323.654 172.149 324.026C171.767 324.384 171.605 324.738 171.429 325.145C171.303 325.239 171.073 325.159 171.01 325.03C171.269 324.302 171.509 323.264 171.621 322.619C171.67 322.59 171.879 322.571 171.925 322.619C172.022 323.138 172.554 323.119 173.29 323.119H179.789C180.655 323.119 180.798 323.089 181.038 322.669C181.12 322.639 181.297 322.653 181.326 322.716C181.148 323.379 181.038 324.689 181.087 325.176C181.024 325.305 180.751 325.305 180.669 325.206C180.621 324.803 180.508 324.205 180.27 324.026C179.9 323.751 179.291 323.624 178.405 323.624H177.268C176.786 323.624 176.805 323.637 176.805 324.171V331.368ZM195.086 331.334C195.086 333.061 195.182 333.321 196.049 333.385L196.661 333.437C196.755 333.535 196.724 333.791 196.627 333.84C195.633 333.808 195.086 333.791 194.445 333.791C193.769 333.791 193.192 333.808 192.344 333.84C192.247 333.791 192.212 333.535 192.308 333.437L192.81 333.385C193.741 333.289 193.769 333.061 193.769 331.334V330.508C193.769 329.62 193.72 329.411 193.258 328.507L191.366 324.786C190.818 323.718 190.579 323.638 190.097 323.557L189.649 323.477C189.55 323.361 189.569 323.138 189.679 323.071C190.194 323.104 190.772 323.12 191.542 323.12C192.279 323.12 192.854 323.104 193.258 323.071C193.401 323.12 193.401 323.379 193.307 323.477L193.1 323.509C192.537 323.59 192.422 323.669 192.422 323.8C192.422 323.962 192.839 324.882 192.92 325.047C193.513 326.241 194.107 327.517 194.733 328.637C195.228 327.777 195.76 326.839 196.241 325.903C196.69 325.061 197.282 323.962 197.282 323.766C197.282 323.669 196.995 323.557 196.612 323.509L196.32 323.477C196.208 323.361 196.227 323.138 196.354 323.071C196.93 323.104 197.396 323.12 197.895 323.12C198.39 323.12 198.839 323.104 199.385 323.071C199.515 323.154 199.53 323.379 199.42 323.477L198.968 323.557C198.134 323.703 197.651 324.723 196.851 326.114L195.843 327.875C195.133 329.106 195.086 329.249 195.086 330.493V331.334Z" fill="#3C5D87"/><path opacity="0.759" fill-rule="evenodd" clip-rule="evenodd" d="M112.566 259.905C111.753 259.589 110.921 259.338 110.075 259.154C109.894 259.744 109.655 260.315 109.363 260.863C110.039 261.004 110.708 261.195 111.362 261.442C111.83 260.991 112.235 260.473 112.566 259.905ZM101.711 261.442C102.359 261.198 103.023 261.006 103.701 260.865C103.406 260.315 103.166 259.744 102.985 259.158C102.143 259.339 101.317 259.591 100.505 259.905C100.835 260.473 101.242 260.991 101.711 261.442ZM100.505 252.795C101.317 253.112 102.143 253.361 102.985 253.545C103.166 252.957 103.406 252.387 103.698 251.84C103.023 251.698 102.359 251.506 101.711 251.262C101.242 251.714 100.835 252.23 100.505 252.795ZM111.362 251.262C110.708 251.506 110.043 251.7 109.363 251.842C109.658 252.39 109.894 252.959 110.075 253.546C110.921 253.364 111.753 253.112 112.566 252.795C112.235 252.23 111.83 251.714 111.362 251.262ZM113.51 256.018C113.469 255.084 113.246 254.195 112.872 253.387C112.017 253.727 111.142 253.992 110.252 254.187C110.392 254.785 110.473 255.399 110.495 256.018H113.51ZM110.252 258.515C111.142 258.71 112.017 258.978 112.872 259.314C113.246 258.508 113.469 257.619 113.51 256.682H110.495C110.473 257.302 110.392 257.918 110.252 258.515ZM109.606 258.386C109.736 257.829 109.816 257.26 109.837 256.682H106.865V258.116C107.791 258.135 108.707 258.223 109.606 258.386ZM108.683 260.738C108.989 260.191 109.237 259.616 109.425 259.027C108.584 258.88 107.73 258.797 106.865 258.782V260.576C107.473 260.59 108.08 260.643 108.683 260.738ZM107.538 263.319C108.749 263.14 109.856 262.653 110.785 261.937C110.207 261.738 109.614 261.582 109.017 261.466C108.602 262.129 108.11 262.751 107.538 263.319ZM108.3 261.349C107.825 261.287 107.345 261.251 106.865 261.237V263.049C107.414 262.53 107.897 261.96 108.3 261.349ZM104.045 261.47C103.449 261.583 102.863 261.739 102.287 261.937C103.209 262.652 104.315 263.139 105.522 263.317C104.952 262.749 104.459 262.129 104.045 261.47ZM104.759 261.353C105.167 261.965 105.651 262.537 106.205 263.059V261.237C105.723 261.251 105.239 261.289 104.759 261.353ZM103.639 259.028C103.825 259.619 104.073 260.194 104.382 260.739C104.986 260.643 105.595 260.59 106.205 260.576V258.782C105.339 258.797 104.483 258.882 103.639 259.028ZM103.456 258.386C104.359 258.223 105.277 258.135 106.205 258.116V256.682H103.224C103.247 257.26 103.321 257.83 103.456 258.386ZM99.5614 256.682C99.6033 257.62 99.824 258.508 100.198 259.314C101.05 258.978 101.92 258.711 102.81 258.517C102.668 257.918 102.588 257.303 102.566 256.682H99.5614ZM102.81 254.187C101.92 253.99 101.05 253.725 100.198 253.387C99.824 254.195 99.6033 255.084 99.5614 256.018H102.566C102.588 255.399 102.668 254.785 102.81 254.187ZM103.454 254.314C103.321 254.873 103.244 255.443 103.224 256.018H106.205V254.584C105.277 254.568 104.358 254.477 103.454 254.314ZM104.379 251.966C104.07 252.51 103.825 253.082 103.637 253.673C104.483 253.82 105.339 253.905 106.205 253.922V252.13C105.592 252.115 104.978 252.061 104.379 251.966ZM105.522 249.385C104.315 249.561 103.209 250.05 102.287 250.764C102.863 250.963 103.449 251.119 104.045 251.231C104.459 250.574 104.952 249.952 105.522 249.385ZM104.759 251.349C105.239 251.414 105.723 251.452 106.205 251.462V249.644C105.651 250.164 105.167 250.737 104.759 251.349ZM109.017 251.234C109.614 251.119 110.207 250.963 110.785 250.764C109.856 250.047 108.749 249.559 107.538 249.384C108.11 249.949 108.602 250.574 109.017 251.234ZM108.302 251.35C107.897 250.742 107.414 250.172 106.865 249.655V251.462C107.345 251.452 107.825 251.416 108.302 251.35ZM109.425 253.674C109.239 253.084 108.992 252.512 108.685 251.968C108.085 252.061 107.476 252.115 106.865 252.13V253.922C107.73 253.905 108.584 253.82 109.425 253.674ZM106.865 256.018H109.837C109.816 255.443 109.738 254.875 109.606 254.316C108.707 254.477 107.791 254.568 106.865 254.584V256.018ZM106.535 248.638C102.316 248.638 98.8839 252.098 98.8839 256.35C98.8839 260.604 102.316 264.064 106.535 264.064C110.754 264.064 114.188 260.604 114.188 256.35C114.188 252.098 110.754 248.638 106.535 248.638ZM115.506 244.748C108.456 244.816 101.415 245.578 94.5527 247.047C97.5783 266.367 109.555 275.774 115.506 279.087V244.748Z" fill="#3C5D87"/><path opacity="0.759" fill-rule="evenodd" clip-rule="evenodd" d="M116.489 233.625C113.069 232.357 108.172 232.082 105.196 232.71L103.899 233.727L103.552 233.779C103.433 233.795 103.343 233.879 103.303 233.953L99.6847 242.016C99.5677 242.239 99.7499 242.429 99.9578 242.388C105.467 241.333 111.308 241.008 116.491 241.008H116.496C121.679 241.008 127.522 241.333 133.03 242.388C133.239 242.429 133.422 242.239 133.304 242.016L129.683 233.953C129.644 233.879 129.553 233.795 129.437 233.779L129.087 233.727L127.791 232.71C124.816 232.082 119.918 232.357 116.499 233.625H116.489ZM93.8439 237.678L93.8418 233.714C93.8418 233.177 94.2122 232.728 94.7047 232.603L94.7322 232.595C101.751 231.081 109.03 230.279 116.494 230.279C123.949 230.279 131.219 231.079 138.227 232.589L138.244 232.595C138.757 232.702 139.146 233.164 139.146 233.714L139.145 237.678C139.145 240.282 138.988 242.738 138.708 245.064C124.161 241.968 108.852 241.968 94.2822 245.07C94.0008 242.74 93.8439 240.285 93.8439 237.678Z" fill="#3C5D87"/><path fill-rule="evenodd" clip-rule="evenodd" d="M116.216 239.908C111.756 238.435 106.644 238.212 103.007 238.906L104.805 233.75L103.611 234.663L101.131 241.172C104.439 240.631 111.913 240.021 115.614 240.073C115.765 240.004 115.951 239.908 116.216 239.908ZM116.714 239.908C121.173 238.435 126.292 238.212 129.931 238.906L128.125 233.75L129.32 234.663L131.802 241.172C128.493 240.631 121.019 240.021 117.316 240.073C117.168 240.004 116.981 239.908 116.714 239.908ZM117.482 259.288V279.086C118.678 278.423 120.115 277.505 121.675 276.321V262.099L117.482 259.288ZM121.675 244.876C120.28 244.81 118.88 244.762 117.482 244.748V249.447L121.675 252.258V244.876ZM130.061 257.887V245.626C128.668 245.446 127.272 245.284 125.87 245.158V255.072L130.061 257.887ZM125.87 264.915V272.647C127.278 271.236 128.7 269.6 130.061 267.74V267.727L125.87 264.915ZM130.061 267.74C130.063 267.737 130.067 267.737 130.069 267.733L130.061 267.727V267.74ZM134.263 260.705C136.115 256.835 137.611 252.311 138.437 247.043C137.049 246.746 135.657 246.482 134.253 246.246V260.697L134.263 260.705ZM121.675 252.261V262.102L125.87 264.915V255.072L121.675 252.261Z" fill="#3C5D87"/><path opacity="0.759" fill-rule="evenodd" clip-rule="evenodd" d="M134.255 260.697L130.062 257.887V267.729L130.071 267.734C131.569 265.686 132.994 263.355 134.255 260.727V260.697ZM134.255 260.727C134.257 260.719 134.262 260.709 134.265 260.705L134.255 260.697V260.727Z" fill="#3C5D87"/><path fill-rule="evenodd" clip-rule="evenodd" d="M6.66306 294.102C6.66306 289.984 6.29381 289.536 4.12302 289.35L3.20201 289.276C2.97956 289.128 3.05537 288.461 3.27541 288.35C5.41237 288.422 6.66306 288.461 8.2087 288.461C9.68146 288.461 10.9346 288.422 12.4069 288.35C12.6287 288.461 12.7028 289.128 12.4802 289.276L11.9299 289.35C9.7584 289.649 9.68146 290.168 9.68146 294.102V307.872C9.68146 310.803 9.53502 313.365 8.83719 315.07C7.6194 318.043 5.00613 320.418 1.58317 320.418C1.13994 320.418 0 320.379 0 319.636C0 319.008 0.549154 317.931 1.32299 317.931C1.76529 317.931 2.20759 318.003 2.68723 318.151C3.20201 318.303 3.71845 318.413 4.23267 318.413C5.00613 318.413 5.44862 317.969 5.70563 317.448C6.55157 315.704 6.66306 310.134 6.66306 308.133V294.102Z" fill="#3C5D87"/><path opacity="0.759" fill-rule="evenodd" clip-rule="evenodd" d="M31.1374 303.5C31.1374 298.334 28.8687 292.761 22.9355 292.761C19.7045 292.761 15.5113 294.985 15.5113 301.841C15.5113 306.473 17.7479 312.487 23.8683 312.487C27.5954 312.487 31.1374 309.669 31.1374 303.5ZM12.4023 302.843C12.4023 296.58 17.0643 291.789 23.4621 291.789C30.6396 291.789 34.2436 297.019 34.2436 302.531C34.2436 308.855 29.4596 313.458 23.4621 313.458C16.5672 313.458 12.4023 308.478 12.4023 302.843ZM41.3005 302.845C39.8106 302.845 39.7474 302.908 39.7474 303.846V308.259C39.7474 311.547 39.9034 311.985 41.6417 312.174L42.5426 312.268C42.7289 312.391 42.6673 312.956 42.4804 313.049C40.8016 312.986 39.7474 312.956 38.5338 312.956C37.2 312.956 36.1449 313.02 34.9319 313.049C34.745 312.956 34.6853 312.454 34.8716 312.268L35.3982 312.174C37.1367 311.862 37.2 311.547 37.2 308.259V296.987C37.2 293.699 36.984 293.167 35.3663 293.041L34.5574 292.979C34.3726 292.853 34.4356 292.289 34.6212 292.196C36.1449 292.227 37.2 292.289 38.5338 292.289C39.7474 292.289 40.8016 292.259 42.1373 292.196C42.3253 292.289 42.3884 292.853 42.1987 292.979L41.6106 293.041C39.8106 293.231 39.7474 293.699 39.7474 296.987V300.588C39.7474 301.559 39.8106 301.591 41.3005 301.591H50.1851C51.6757 301.591 51.7383 301.559 51.7383 300.588V296.987C51.7383 293.699 51.6757 293.231 49.8448 293.041L49.2531 292.979C49.0662 292.853 49.1282 292.289 49.3153 292.196C50.7421 292.259 51.7982 292.289 53.0756 292.289C54.2841 292.289 55.3435 292.259 56.7411 292.196C56.9235 292.289 56.9875 292.853 56.8045 292.979L56.1497 293.041C54.3481 293.231 54.2841 293.699 54.2841 296.987V308.259C54.2841 311.547 54.3481 311.955 56.1497 312.174L56.8932 312.268C57.0801 312.391 57.0186 312.956 56.8331 313.049C55.3433 312.986 54.2841 312.956 53.0756 312.956C51.7982 312.956 50.6825 312.986 49.3153 313.049C49.1282 312.956 49.0662 312.454 49.2531 312.268L49.8448 312.174C51.7383 311.862 51.7383 311.547 51.7383 308.259V303.846C51.7383 302.908 51.6757 302.845 50.1851 302.845H41.3005ZM78.1147 307.632C78.1147 308.574 78.1147 312.299 78.2054 313.113C78.146 313.3 77.96 313.458 77.6193 313.458C77.2445 312.927 76.3434 311.83 73.639 308.731L66.4343 300.464C65.5972 299.493 63.4812 296.925 62.8305 296.237H62.7683C62.6436 296.613 62.6133 297.332 62.6133 298.271V305.099C62.6133 306.568 62.6436 310.639 63.1722 311.577C63.3597 311.922 63.9801 312.112 64.7565 312.173L65.7176 312.268C65.9064 312.518 65.8744 312.894 65.6569 313.049C64.2598 312.985 63.1722 312.955 62.0206 312.955C60.7198 312.955 59.8812 312.985 58.7898 313.049C58.5723 312.894 58.5432 312.455 58.73 312.268L59.5694 312.173C60.2847 312.078 60.7786 311.893 60.937 311.547C61.3702 310.419 61.3397 306.601 61.3397 305.099V296.049C61.3397 295.171 61.3077 294.514 60.6554 293.794C60.2207 293.357 59.4768 293.138 58.73 293.041L58.2033 292.981C58.0172 292.793 58.0172 292.323 58.2641 292.197C59.5694 292.288 61.2161 292.288 61.774 292.288C62.272 292.288 62.8011 292.259 63.2042 292.197C63.8251 293.794 67.4907 297.928 68.5138 299.085L71.5291 302.496C73.6721 304.907 75.1929 306.663 76.6538 308.165H76.7169C76.8404 308.009 76.8404 307.507 76.8404 306.85V300.149C76.8404 298.678 76.8095 294.608 76.2193 293.669C76.0332 293.386 75.5371 293.198 74.2938 293.041L73.7671 292.981C73.5496 292.793 73.5795 292.288 73.8256 292.197C75.2566 292.259 76.3131 292.288 77.4928 292.288C78.8293 292.288 79.6375 292.259 80.6926 292.197C80.9411 292.353 80.9411 292.793 80.7555 292.981L80.3194 293.041C79.3268 293.198 78.7045 293.45 78.5781 293.699C78.0544 294.828 78.1147 298.71 78.1147 300.149V307.632ZM86.3268 313.458C83.7163 313.458 82.0689 312.644 81.4781 312.299C81.1087 311.61 80.7026 309.387 80.6395 307.917C80.7981 307.695 81.2624 307.631 81.3862 307.822C81.8515 309.418 83.1254 312.487 86.7282 312.487C89.3389 312.487 90.6134 310.766 90.6134 308.884C90.6134 307.508 90.3341 305.973 88.0636 304.503L85.1135 302.56C83.5595 301.526 81.7603 299.74 81.7603 297.176C81.7603 294.2 84.0574 291.79 88.0951 291.79C89.0588 291.79 90.1791 291.977 90.9845 292.196C91.3882 292.323 91.8233 292.386 92.0693 292.386C92.3503 293.138 92.6314 294.89 92.6314 296.205C92.5082 296.394 92.0103 296.484 91.8534 296.299C91.4517 294.796 90.6134 292.762 87.6298 292.762C84.5868 292.762 83.9326 294.796 83.9326 296.237C83.9326 298.052 85.4259 299.367 86.5731 300.088L89.0588 301.651C91.0173 302.875 92.9421 304.688 92.9421 307.665C92.9421 311.108 90.3634 313.458 86.3268 313.458ZM111.381 300.968C109.612 300.968 109.539 301.043 109.539 302.156V307.39C109.539 311.286 109.723 311.807 111.785 312.029L112.854 312.139C113.074 312.289 113.001 312.955 112.781 313.067C110.793 312.992 109.539 312.955 108.104 312.955C106.521 312.955 105.267 313.029 103.834 313.067C103.611 312.955 103.536 312.362 103.759 312.139L104.385 312.029C106.447 311.658 106.521 311.286 106.521 307.39V294.028C106.521 290.128 106.261 289.5 104.349 289.351L103.39 289.277C103.171 289.128 103.242 288.46 103.464 288.348C105.267 288.385 106.521 288.46 108.104 288.46C109.539 288.46 110.793 288.423 112.375 288.348C112.596 288.46 112.67 289.128 112.447 289.277L111.748 289.351C109.612 289.575 109.539 290.128 109.539 294.028V298.297C109.539 299.447 109.612 299.481 111.381 299.481H121.912C123.68 299.481 123.752 299.447 123.752 298.297V294.028C123.752 290.128 123.68 289.575 121.505 289.351L120.807 289.277C120.587 289.128 120.66 288.46 120.882 288.348C122.573 288.423 123.827 288.46 125.337 288.46C126.772 288.46 128.023 288.423 129.683 288.348C129.901 288.46 129.976 289.128 129.753 289.277L128.981 289.351C126.846 289.575 126.772 290.128 126.772 294.028V307.39C126.772 311.286 126.846 311.767 128.981 312.029L129.865 312.139C130.086 312.289 130.012 312.955 129.79 313.067C128.023 312.992 126.772 312.955 125.337 312.955C123.827 312.955 122.502 312.992 120.882 313.067C120.66 312.955 120.587 312.362 120.807 312.139L121.505 312.029C123.752 311.658 123.752 311.286 123.752 307.39V302.156C123.752 301.043 123.68 300.968 121.912 300.968H111.381Z" fill="#3C5D87"/><path opacity="0.759" fill-rule="evenodd" clip-rule="evenodd" d="M148.365 303.499C148.365 298.334 146.098 292.761 140.164 292.761C136.933 292.761 132.74 294.985 132.74 301.841C132.74 306.472 134.976 312.487 141.096 312.487C144.825 312.487 148.365 309.669 148.365 303.499ZM129.633 302.843C129.633 296.58 134.292 291.789 140.692 291.789C147.866 291.789 151.471 297.018 151.471 302.531C151.471 308.855 146.688 313.458 140.692 313.458C133.795 313.458 129.633 308.478 129.633 302.843ZM157.095 308.259C157.095 311.548 157.157 311.954 159.142 312.173L159.984 312.267C160.17 312.422 160.108 312.956 159.921 313.05C158.151 312.985 157.127 312.956 155.881 312.956C154.577 312.956 153.459 312.985 152.093 313.05C151.907 312.956 151.845 312.455 152.031 312.267L152.683 312.173C154.486 311.923 154.546 311.548 154.546 308.259V296.706C154.546 294.044 154.486 293.51 153.087 293.354L151.97 293.231C151.752 293.042 151.782 292.573 152.031 292.448C153.677 292.228 155.602 292.195 158.181 292.195C160.759 292.195 162.686 292.54 164.145 293.45C165.573 294.359 166.63 295.986 166.63 298.145C166.63 301.026 164.861 302.467 163.524 303.124C162.157 303.781 160.511 304.063 159.236 304.063C159.021 303.97 159.021 303.501 159.206 303.439C162.561 302.811 163.772 300.9 163.772 298.176C163.772 295.139 162.003 293.168 158.772 293.168C157.127 293.168 157.095 293.291 157.095 294.297V308.259ZM170.02 296.986C170.02 293.699 169.957 293.198 168.155 293.042L167.379 292.981C167.191 292.853 167.254 292.288 167.44 292.195C168.962 292.259 169.957 292.288 171.354 292.288C172.565 292.288 173.624 292.259 174.959 292.195C175.146 292.288 175.207 292.853 175.02 292.981L174.432 293.042C172.627 293.231 172.565 293.699 172.565 296.986V300.589C172.565 301.184 172.627 301.78 172.972 301.78C173.249 301.78 173.624 301.59 173.84 301.432C174.274 301.059 175.084 300.242 175.425 299.93L178.778 296.58C179.368 296.018 180.892 294.419 181.201 293.98C181.357 293.762 181.42 293.605 181.42 293.479C181.42 293.357 181.296 293.261 180.892 293.167L180.054 292.981C179.835 292.762 179.867 292.353 180.115 292.195C181.201 292.259 182.444 292.288 183.533 292.288C184.621 292.288 185.675 292.259 186.608 292.195C186.823 292.353 186.855 292.791 186.669 292.981C185.861 293.042 184.651 293.357 183.78 293.855C182.912 294.357 181.171 295.827 179.432 297.49L176.635 300.15C176.201 300.589 175.921 300.87 175.921 301.122C175.921 301.34 176.108 301.59 176.511 302.089C179.464 305.503 181.855 308.322 184.278 310.887C185.024 311.64 185.708 312.049 186.766 312.174L187.602 312.268C187.821 312.422 187.758 312.955 187.539 313.05C186.732 312.985 185.52 312.955 184.06 312.955C182.789 312.955 181.699 312.985 180.27 313.05C180.054 312.985 179.96 312.455 180.147 312.268L180.861 312.14C181.296 312.078 181.607 311.984 181.607 311.83C181.607 311.64 181.389 311.391 181.171 311.106C180.58 310.356 179.774 309.512 178.593 308.165L176.108 305.347C174.338 303.343 173.84 302.717 173.094 302.717C172.627 302.717 172.565 303.124 172.565 304.222V308.259C172.565 311.546 172.627 311.984 174.368 312.174L175.207 312.268C175.391 312.392 175.332 312.955 175.146 313.05C173.624 312.985 172.565 312.955 171.354 312.955C170.081 312.955 169.025 312.985 167.753 313.05C167.567 312.955 167.501 312.487 167.689 312.268L168.31 312.174C169.957 311.922 170.02 311.546 170.02 308.259V296.986ZM191.342 297.05C191.342 293.728 191.28 293.198 189.446 293.042L188.671 292.98C188.482 292.853 188.546 292.29 188.732 292.195C190.286 292.259 191.342 292.29 192.646 292.29C193.889 292.29 194.945 292.259 196.499 292.195C196.686 292.29 196.747 292.853 196.559 292.98L195.783 293.042C193.952 293.198 193.889 293.728 193.889 297.05V308.195C193.889 311.516 193.952 311.955 195.783 312.174L196.559 312.267C196.747 312.392 196.686 312.955 196.499 313.05C194.945 312.986 193.889 312.955 192.646 312.955C191.342 312.955 190.286 312.986 188.732 313.05C188.546 312.955 188.482 312.455 188.671 312.267L189.446 312.174C191.28 311.955 191.342 311.516 191.342 308.195V297.05ZM218.213 307.632C218.213 308.574 218.213 312.298 218.307 313.112C218.245 313.3 218.062 313.458 217.718 313.458C217.346 312.927 216.444 311.83 213.743 308.731L206.536 300.463C205.695 299.493 203.581 296.925 202.93 296.236H202.869C202.744 296.613 202.711 297.332 202.711 298.271V305.098C202.711 306.568 202.744 310.639 203.272 311.577C203.46 311.922 204.08 312.112 204.857 312.173L205.82 312.268C206.005 312.518 205.976 312.894 205.758 313.049C204.36 312.985 203.272 312.955 202.122 312.955C200.819 312.955 199.978 312.985 198.891 313.049C198.675 312.894 198.643 312.455 198.829 312.268L199.669 312.173C200.384 312.078 200.879 311.893 201.035 311.547C201.469 310.419 201.44 306.601 201.44 305.098V296.049C201.44 295.171 201.41 294.514 200.757 293.794C200.321 293.357 199.576 293.137 198.829 293.041L198.301 292.981C198.115 292.793 198.115 292.323 198.365 292.197C199.669 292.288 201.316 292.288 201.875 292.288C202.37 292.288 202.898 292.259 203.301 292.197C203.925 293.794 207.591 297.927 208.614 299.085L211.63 302.496C213.772 304.907 215.293 306.662 216.753 308.165H216.816C216.941 308.008 216.941 307.506 216.941 306.85V300.149C216.941 298.678 216.909 294.608 216.319 293.669C216.134 293.386 215.637 293.198 214.394 293.041L213.867 292.981C213.647 292.793 213.677 292.288 213.927 292.197C215.357 292.259 216.413 292.288 217.593 292.288C218.931 292.288 219.738 292.259 220.794 292.197C221.042 292.353 221.042 292.793 220.857 292.981L220.422 293.041C219.428 293.198 218.804 293.45 218.678 293.699C218.153 294.827 218.213 298.709 218.213 300.149V307.632ZM226.371 313.458C223.763 313.458 222.116 312.643 221.525 312.298C221.154 311.61 220.748 309.387 220.688 307.916C220.844 307.695 221.311 307.631 221.43 307.822C221.898 309.418 223.172 312.487 226.773 312.487C229.384 312.487 230.659 310.766 230.659 308.884C230.659 307.506 230.378 305.972 228.109 304.503L225.16 302.56C223.607 301.526 221.804 299.74 221.804 297.176C221.804 294.2 224.105 291.79 228.143 291.79C229.105 291.79 230.222 291.977 231.031 292.196C231.436 292.323 231.871 292.386 232.12 292.386C232.4 293.137 232.678 294.89 232.678 296.205C232.555 296.394 232.056 296.483 231.9 296.299C231.497 294.796 230.659 292.762 227.677 292.762C224.633 292.762 223.98 294.796 223.98 296.236C223.98 298.052 225.47 299.367 226.62 300.088L229.105 301.651C231.065 302.875 232.99 304.688 232.99 307.665C232.99 311.107 230.411 313.458 226.371 313.458Z" fill="#3C5D87"/></g><path d="M268.37 70.4854C262.664 70.4854 258.673 75.1221 257.302 82.4254L277.385 82.1935C277.385 76.0498 273.618 70.4854 268.37 70.4854ZM267.342 117.671C255.363 117.671 246.12 108.048 246.12 94.5996C246.12 78.1363 256.048 66.8899 270.082 66.8899C281.377 66.8899 287.652 73.3841 287.652 83.7017V85.7881L256.846 85.5562C256.618 86.8313 256.503 88.9187 256.503 91.469C256.503 103.295 263.805 111.062 273.505 111.062C279.324 111.062 282.291 108.976 286.854 105.034L288.566 107.699C282.062 113.729 276.7 117.671 267.342 117.671ZM214.628 116.743V114.076C219.763 113.729 221.246 112.57 222.159 110.598V50.543C222.159 46.6011 221.588 44.9785 213.716 44.2827V41.9644L234.597 36.6309L235.28 38.6029L231.972 42.7767V110.598C233.113 112.917 235.28 113.729 239.958 114.076V116.743H214.628ZM179.828 98.8889C179.371 100.743 179.03 102.367 179.03 104.918C179.03 108.395 180.969 111.873 184.734 111.873C188.156 111.873 190.097 110.715 193.178 108.28L193.291 92.6276C190.325 94.0192 183.023 97.2664 179.828 98.8889ZM202.648 117.786C196.487 117.786 193.52 113.496 193.291 110.483C189.412 114.657 184.392 117.786 179.6 117.786C173.438 117.786 168.189 113.961 168.189 107.353C168.189 104.106 168.988 100.743 170.585 98.0777L193.291 89.73V81.1503C193.291 75.9334 190.895 70.9482 185.76 70.9482C182.68 70.9482 179.713 74.7736 179.486 80.6875L169.216 82.4254V81.2669C172.639 70.8318 183.935 66.7754 189.412 66.7754C199.796 66.7754 203.56 72.3398 203.447 80.9184L203.104 105.266C202.99 110.019 205.501 111.177 207.782 111.177C209.608 111.177 211.433 110.019 213.603 107.816V111.177C211.091 114.193 206.643 117.786 202.648 117.786ZM165.223 53.6736L146.396 85.9035V107.585C148.564 112.801 154.041 113.496 159.29 113.729V116.743H122.435V113.729C127.684 113.496 134.074 112.686 135.785 109.207V86.8313L116.616 53.9055C113.308 48.34 110.112 46.4867 103.723 46.0217V43.0076H135.785V46.0217C129.738 46.3691 127.798 47.5298 126.086 48.9215L143.886 80.2226L161.343 49.0359C159.518 47.6453 157.122 46.3691 151.075 46.0217V43.0076H178.458V46.0217C172.297 46.2547 168.417 48.34 165.223 53.6736Z" fill="#3C5D87"/></g><path opacity="0.282" fill-rule="evenodd" clip-rule="evenodd" d="M569.912 211.32L571.069 211.32L574.678 265.457L577.584 254.563L578.724 254.712V283.989H562.262V254.712L563.402 254.563L566.304 265.449L569.912 211.32ZM566.064 269.051L566.044 269.342H566.142L569.737 282.829H563.421V259.138L566.064 269.051ZM570.492 281.158L567.342 269.342H573.642L570.492 281.158ZM571.246 282.829L574.842 269.342H574.937L574.918 269.058L577.564 259.137V282.829H571.246ZM573.698 268.183L570.49 220.076L567.284 268.183H573.698ZM562.262 285.767H578.724V289.851H562.262V285.767ZM563.421 286.927V288.691H577.564V286.927H563.421Z" fill="#3C5D87"/><path opacity="0.282" d="M413.956 223.475C404.567 223.475 398.482 229.214 398.482 236.416C398.482 243.612 404.567 249.351 413.956 249.351C416.825 249.351 420.478 248.516 422.606 246.117L423.084 248.828H428.301V235.229H415.26V240.03H420.91C420.478 242.289 417.783 243.786 413.783 243.786C408.567 243.786 406.567 240.101 406.567 236.416C406.567 232.728 408.567 229.041 413.783 229.041C417.043 229.041 419.65 230.327 419.911 232.451H427.996C427.257 226.224 420.389 223.475 413.956 223.475ZM522.171 223.999V228.519H529.56V223.999H522.171ZM442.075 230.259C435.425 230.259 429.904 234.223 429.904 239.752C429.904 245.804 434.904 249.351 442.251 249.351C447.292 249.351 452.115 247.544 453.463 243.37H446.552C445.856 244.69 444.118 245.35 442.334 245.35C439.205 245.35 437.422 243.716 437.293 241.245H453.855C454.201 235.126 450.16 230.259 442.075 230.259ZM466.875 230.259C459.877 230.259 455.009 234.397 455.009 239.821C455.009 245.245 459.877 249.351 466.875 249.351C473.874 249.351 478.784 245.245 478.784 239.821C478.784 234.397 473.874 230.259 466.875 230.259ZM506.142 230.259C499.75 230.259 496.231 234.293 496.231 239.093C496.231 244.168 499.315 248.063 506.142 248.063C508.531 248.063 510.79 247.092 512.137 245.422H512.227V247.125C512.227 249.353 511.876 251.334 508.357 251.334C507.23 251.334 506.315 251.227 505.662 250.95C504.968 250.672 504.576 250.184 504.401 249.386H497.012C497.882 254.219 502.835 255.158 508.096 255.158C518.663 255.158 519.35 249.592 519.35 246.638V230.78H512.268V233.039H512.182C510.879 231.197 508.836 230.259 506.142 230.259ZM542.426 230.259C539.862 230.259 537.251 230.605 535.259 231.508C533.254 232.447 531.867 233.979 531.739 236.345H538.65C538.988 234.814 540.305 234.082 542.344 234.082C543.859 234.082 545.911 234.605 545.911 235.96C545.911 237.073 545.211 237.421 543.953 237.631C538.825 238.466 530.83 238.012 530.83 243.891C530.83 247.611 534.21 249.351 538.522 249.351C541.214 249.351 544.046 248.725 545.957 247.125C546.039 247.718 546.12 248.272 546.388 248.828H553.824C552.95 247.403 552.95 245.731 552.95 244.204V236.311C552.95 231.198 547.775 230.259 542.426 230.259ZM494.051 230.431C490.877 230.431 488.357 231.65 487.27 233.946H487.181V230.78H480.011V248.828H487.402V239.891C487.402 237.634 489.312 235.611 492.962 235.611C493.962 235.611 494.833 235.751 495.79 235.96V230.57C495.224 230.465 494.616 230.431 494.051 230.431ZM522.171 230.78V248.828H529.56V230.78H522.171ZM442.075 234.257C444.552 234.257 446.334 235.925 446.466 237.942H437.293C437.726 235.75 439.467 234.257 442.075 234.257ZM466.875 234.779C470.309 234.779 471.395 237.526 471.395 239.821C471.395 242.115 470.309 244.829 466.875 244.829C463.441 244.829 462.398 242.115 462.398 239.821C462.398 237.526 463.441 234.779 466.875 234.779ZM507.922 234.779C511.226 234.779 512.356 237.041 512.356 239.336C512.356 241.595 511.009 243.542 507.879 243.542C504.836 243.542 503.62 241.42 503.62 239.299C503.62 237.073 504.662 234.779 507.922 234.779ZM545.817 240.378C545.992 244.099 544.815 245.698 541.296 245.698C539.641 245.698 538.207 245.106 538.207 243.647C538.207 242.221 539.606 241.665 541.261 241.35C542.869 241.003 544.78 240.899 545.817 240.378ZM460.093 253.339V258.903H469.352V278.171H477.434V258.903H486.696V253.339H460.093ZM530.445 253.339V278.171H537.834V268.329C537.834 266.348 539.046 264.468 541.832 264.468C545.876 264.468 545.526 266.972 545.526 269.442V278.171H552.915V266.589C552.915 263.981 552.309 259.599 544.792 259.599C542.1 259.599 539.046 260.747 537.916 262.593H537.834V253.339H530.445ZM492.346 259.599C485.696 259.599 480.173 263.565 480.173 269.093C480.173 275.144 485.173 278.694 492.518 278.694C497.559 278.694 502.384 276.886 503.732 272.71H496.823C496.125 274.031 494.388 274.693 492.603 274.693C489.474 274.693 487.693 273.059 487.563 270.589H504.125C504.471 264.468 500.43 259.599 492.346 259.599ZM517.59 259.599C510.326 259.599 505.762 263.702 505.762 269.442C505.762 274.972 510.805 278.694 517.59 278.694C523.581 278.694 528.278 275.91 528.93 271.076H521.763C521.413 272.988 520.108 274.171 517.544 274.171C514.409 274.171 513.152 271.769 513.152 269.442C513.152 266.937 513.805 264.119 517.928 264.119C519.805 264.119 521.495 265.197 521.541 266.729H528.709C528.196 261.966 523.196 259.599 517.59 259.599ZM492.346 263.598C494.824 263.598 496.603 265.267 496.735 267.286H487.563C487.998 265.092 489.738 263.598 492.346 263.598Z" fill="#3C5D87"/></g><path d="M188.447 190.5C188.447 183.82 188.447 180.48 190.522 178.405C192.598 176.33 195.938 176.33 202.617 176.33H377.383C384.063 176.33 387.403 176.33 389.478 178.405C391.554 180.48 391.554 183.82 391.554 190.5V299.139C391.554 301.365 391.554 302.479 390.862 303.17C390.17 303.862 389.057 303.862 386.83 303.862H193.171C190.944 303.862 189.831 303.862 189.139 303.17C188.447 302.479 188.447 301.365 188.447 299.139V190.5Z" fill="#A8B4C4"/><path d="M198.895 195.224C198.895 192.969 198.897 191.379 199.059 190.175C199.217 188.999 199.51 188.343 199.985 187.868C200.46 187.393 201.116 187.099 202.292 186.941C203.496 186.779 205.086 186.777 207.341 186.777H372.661C374.915 186.777 376.506 186.779 377.71 186.941C378.885 187.099 379.542 187.393 380.017 187.868C380.492 188.343 380.785 188.999 380.943 190.175C381.105 191.379 381.107 192.969 381.107 195.224V292.054C381.107 293.196 381.105 293.951 381.03 294.512C380.958 295.044 380.838 295.249 380.708 295.379C380.579 295.508 380.374 295.628 379.842 295.7C379.281 295.775 378.525 295.777 377.384 295.777H202.618C201.476 295.777 200.721 295.775 200.16 295.7C199.628 295.628 199.422 295.508 199.293 295.379C199.164 295.249 199.044 295.044 198.972 294.512C198.897 293.951 198.895 293.196 198.895 292.054V195.224Z" fill="white" stroke="#083156" stroke-width="2"/><path d="M389.192 178.691H200.255C195.802 178.691 193.575 178.691 192.192 180.075C190.809 181.458 190.809 183.685 190.809 188.138V302.681" stroke="white" stroke-width="2" stroke-linecap="round"/><path d="M188.447 190.5C188.447 183.82 188.447 180.48 190.522 178.405C192.598 176.33 195.938 176.33 202.617 176.33H377.383C384.063 176.33 387.403 176.33 389.478 178.405C391.554 180.48 391.554 183.82 391.554 190.5V299.139C391.554 301.365 391.554 302.479 390.862 303.17C390.17 303.862 389.057 303.862 386.83 303.862H193.171C190.944 303.862 189.831 303.862 189.139 303.17C188.447 302.479 188.447 301.365 188.447 299.139V190.5Z" stroke="#083156" stroke-width="2"/><rect x="179" y="303.861" width="222" height="11.8085" rx="3.54255" fill="#A8B4C4"/><rect x="179" y="303.861" width="222" height="11.8085" rx="3.54255" stroke="#083156" stroke-width="2"/><rect opacity="0.18" x="248.67" y="310.947" width="132.255" height="4.7234" rx="2.3617" fill="#083156"/><path opacity="0.5" d="M273.469 305.043H306.533V306.224C306.533 307.528 305.475 308.586 304.171 308.586H275.83C274.526 308.586 273.469 307.528 273.469 306.224V305.043Z" fill="#083156"/><rect opacity="0.14" x="233.898" y="291.291" width="161.45" height="11.8085" rx="3.54255" fill="#083156"/><rect opacity="0.08" x="231.537" y="285.387" width="135.471" height="20.0745" rx="3.54255" fill="#083156"/><path d="M310.305 262.905L308.525 267.575C308.15 268.561 307.446 269.388 306.532 269.915C305.619 270.441 304.552 270.637 303.51 270.47L298.578 269.679C298.259 269.627 297.933 269.643 297.621 269.726C297.31 269.81 297.018 269.958 296.768 270.162L292.893 273.316C292.075 273.98 291.053 274.343 289.999 274.343C288.946 274.343 287.923 273.98 287.106 273.316L283.23 270.159C282.98 269.955 282.689 269.807 282.377 269.723C282.065 269.64 281.739 269.624 281.42 269.675L276.488 270.466C275.447 270.635 274.38 270.439 273.466 269.912C272.553 269.385 271.849 268.559 271.474 267.573L269.698 262.905C269.582 262.604 269.405 262.33 269.176 262.102C268.948 261.873 268.674 261.696 268.373 261.58L263.705 259.801C262.719 259.425 261.894 258.721 261.367 257.807C260.839 256.895 260.643 255.827 260.811 254.786L261.604 249.853C261.655 249.534 261.637 249.209 261.553 248.897C261.471 248.585 261.322 248.295 261.119 248.043L257.966 244.171C257.301 243.354 256.938 242.331 256.938 241.277C256.938 240.223 257.301 239.201 257.966 238.384L261.119 234.506C261.322 234.255 261.471 233.965 261.553 233.652C261.637 233.34 261.655 233.014 261.604 232.695L260.811 227.763C260.643 226.723 260.839 225.655 261.367 224.741C261.894 223.828 262.719 223.125 263.705 222.749L268.373 220.973C268.674 220.857 268.948 220.68 269.176 220.451C269.405 220.223 269.582 219.949 269.698 219.648L271.477 214.98C271.853 213.994 272.557 213.169 273.471 212.642C274.383 212.114 275.451 211.918 276.492 212.086L281.424 212.88C281.742 212.929 282.067 212.911 282.379 212.829C282.69 212.745 282.98 212.597 283.23 212.394L287.107 209.241C287.924 208.577 288.947 208.213 290 208.213C291.055 208.213 292.076 208.577 292.894 209.241L296.77 212.394C297.021 212.597 297.312 212.746 297.624 212.829C297.937 212.913 298.263 212.93 298.581 212.88L303.513 212.086C304.554 211.918 305.622 212.114 306.534 212.642C307.448 213.169 308.152 213.994 308.528 214.98L310.307 219.648C310.423 219.949 310.601 220.223 310.829 220.451C311.057 220.68 311.331 220.857 311.633 220.973L316.3 222.753C317.286 223.128 318.113 223.832 318.639 224.746C319.166 225.659 319.362 226.726 319.194 227.768L318.403 232.699C318.351 233.018 318.368 233.343 318.45 233.654C318.533 233.965 318.681 234.255 318.884 234.506L322.038 238.382C322.703 239.201 323.065 240.222 323.065 241.276C323.065 242.33 322.703 243.351 322.038 244.17L318.884 248.045C318.679 248.297 318.532 248.587 318.448 248.899C318.364 249.211 318.349 249.538 318.4 249.857L319.191 254.788C319.36 255.83 319.164 256.897 318.637 257.811C318.109 258.724 317.284 259.428 316.298 259.803L311.63 261.583C311.329 261.698 311.055 261.875 310.827 262.103C310.599 262.331 310.421 262.604 310.305 262.905Z" stroke="#FFAA00" stroke-width="2"/><path d="M302.79 236.848C304.001 239.538 304.236 242.567 303.456 245.412C302.675 248.258 300.926 250.742 298.511 252.437C296.097 254.132 293.167 254.932 290.225 254.699C287.284 254.468 284.516 253.216 282.398 251.162C277.754 252.837 272.606 251.4 269.569 247.653C269.42 247.468 269.316 247.252 269.268 247.019C269.218 246.787 269.224 246.547 269.285 246.317C269.347 246.088 269.462 245.877 269.621 245.701C269.779 245.525 269.977 245.388 270.199 245.304L276.349 242.941L273.232 238.492C272.827 237.913 272.572 237.243 272.488 236.541C272.404 235.84 272.496 235.128 272.755 234.47C273.013 233.813 273.43 233.229 273.969 232.772C274.508 232.315 275.152 231.998 275.843 231.851C279.353 231.102 281.612 230.377 282.619 229.675C283.627 228.971 285.056 227.127 286.907 224.143C287.28 223.542 287.798 223.044 288.41 222.692C289.024 222.34 289.715 222.145 290.423 222.127C291.13 222.108 291.83 222.264 292.462 222.582C293.094 222.901 293.637 223.371 294.042 223.951L297.13 228.361L301.384 223.466C301.54 223.286 301.736 223.147 301.956 223.057C302.177 222.968 302.414 222.933 302.65 222.953C302.886 222.974 303.116 223.05 303.316 223.176C303.517 223.301 303.686 223.474 303.809 223.677C306.271 227.782 305.885 233.064 302.79 236.848ZM291.784 257.877L288.49 257.41C287.938 257.343 287.383 257.494 286.943 257.832C286.502 258.17 286.213 258.667 286.136 259.217C286.06 259.766 286.203 260.325 286.534 260.77C286.866 261.215 287.359 261.511 287.907 261.596L291.204 262.061C291.755 262.129 292.31 261.978 292.75 261.64C293.19 261.302 293.48 260.804 293.557 260.255C293.632 259.705 293.489 259.147 293.159 258.702C292.827 258.257 292.333 257.961 291.785 257.876L291.784 257.877ZM309.094 243.11C308.823 243.052 308.543 243.049 308.27 243.1C307.997 243.149 307.737 243.253 307.505 243.404C307.272 243.555 307.071 243.751 306.914 243.979C306.758 244.208 306.647 244.466 306.591 244.737L305.901 247.99C305.801 248.53 305.917 249.089 306.222 249.547C306.528 250.004 306.999 250.324 307.538 250.439C308.075 250.553 308.637 250.454 309.102 250.162C309.569 249.869 309.902 249.407 310.032 248.873L310.72 245.62C310.837 245.072 310.732 244.499 310.426 244.028C310.122 243.558 309.642 243.228 309.094 243.11Z" stroke="#FFAA00" stroke-width="2"/><path d="M157 316H423" stroke="#083156" stroke-width="2" stroke-linecap="round" stroke-linejoin="round"/></svg>